<svg id="Layer_1" data-name="Layer 1" xmlns="http://www.w3.org/2000/svg" xmlns:xlink="http://www.w3.org/1999/xlink" viewBox="0 0 141.7323 141.7323">
  <defs>
    <style>
      .cls-1, .cls-5 {
        fill: none;
      }

      .cls-2 {
        fill: #262626;
      }

      .cls-3 {
        fill: #404040;
        stroke-width: 0.9944px;
      }

      .cls-3, .cls-5 {
        stroke: #000;
        stroke-miterlimit: 10;
      }

      .cls-4 {
        fill: url(#New_Pattern_3);
      }

      .cls-5 {
        stroke-width: 2.9833px;
      }
    </style>
    <pattern id="New_Pattern_3" data-name="New Pattern 3" width="90" height="90" patternTransform="translate(-9 -60.7323)" patternUnits="userSpaceOnUse" viewBox="0 0 90 90">
      <rect class="cls-1" width="90" height="90"/>
      <polygon class="cls-2" points="0.7 90 0 90 0 89.3 0.7 90"/>
      <polygon class="cls-2" points="10.7 90 9.3 90 0 80.7 0 79.3 10.7 90"/>
      <polygon class="cls-2" points="20.7 90 19.3 90 0 70.7 0 69.3 20.7 90"/>
      <polygon class="cls-2" points="30.7 90 29.3 90 0 60.7 0 59.3 30.7 90"/>
      <polygon class="cls-2" points="40.7 90 39.3 90 0 50.7 0 49.3 40.7 90"/>
      <polygon class="cls-2" points="50.7 90 49.3 90 0 40.7 0 39.3 50.7 90"/>
      <polygon class="cls-2" points="60.7 90 59.3 90 0 30.7 0 29.3 60.7 90"/>
      <polygon class="cls-2" points="70.7 90 69.3 90 0 20.7 0 19.3 70.7 90"/>
      <polygon class="cls-2" points="80.7 90 79.3 90 0 10.7 0 9.3 80.7 90"/>
      <polygon class="cls-2" points="90 89.3 90 90 89.3 90 0 0.7 0 0 0.7 0 90 89.3"/>
      <polygon class="cls-2" points="5.7 90 4.3 90 0 85.7 0 84.3 5.7 90"/>
      <polygon class="cls-2" points="15.7 90 14.3 90 0 75.7 0 74.3 15.7 90"/>
      <polygon class="cls-2" points="25.7 90 24.3 90 0 65.7 0 64.3 25.7 90"/>
      <polygon class="cls-2" points="35.7 90 34.3 90 0 55.7 0 54.3 35.7 90"/>
      <polygon class="cls-2" points="45.7 90 44.3 90 0 45.7 0 44.3 45.7 90"/>
      <polygon class="cls-2" points="55.7 90 54.3 90 0 35.7 0 34.3 55.7 90"/>
      <polygon class="cls-2" points="65.7 90 64.3 90 0 25.7 0 24.3 65.7 90"/>
      <polygon class="cls-2" points="75.7 90 74.3 90 0 15.7 0 14.3 75.7 90"/>
      <polygon class="cls-2" points="85.7 90 84.3 90 0 5.7 0 4.3 85.7 90"/>
      <polygon class="cls-2" points="90 0 90 0.7 89.3 0 90 0"/>
      <polygon class="cls-2" points="90 9.3 90 10.7 79.3 0 80.7 0 90 9.3"/>
      <polygon class="cls-2" points="90 19.3 90 20.7 69.3 0 70.7 0 90 19.3"/>
      <polygon class="cls-2" points="90 29.3 90 30.7 59.3 0 60.7 0 90 29.3"/>
      <polygon class="cls-2" points="90 39.3 90 40.7 49.3 0 50.7 0 90 39.3"/>
      <polygon class="cls-2" points="90 49.3 90 50.7 39.3 0 40.7 0 90 49.3"/>
      <polygon class="cls-2" points="90 59.3 90 60.7 29.3 0 30.7 0 90 59.3"/>
      <polygon class="cls-2" points="90 69.3 90 70.7 19.3 0 20.7 0 90 69.3"/>
      <polygon class="cls-2" points="90 79.3 90 80.7 9.3 0 10.7 0 90 79.3"/>
      <polygon class="cls-2" points="90 4.3 90 5.7 84.3 0 85.7 0 90 4.3"/>
      <polygon class="cls-2" points="90 14.3 90 15.7 74.3 0 75.7 0 90 14.3"/>
      <polygon class="cls-2" points="90 24.3 90 25.7 64.3 0 65.7 0 90 24.3"/>
      <polygon class="cls-2" points="90 34.3 90 35.7 54.3 0 55.7 0 90 34.3"/>
      <polygon class="cls-2" points="90 44.3 90 45.7 44.3 0 45.7 0 90 44.3"/>
      <polygon class="cls-2" points="90 54.3 90 55.7 34.3 0 35.7 0 90 54.3"/>
      <polygon class="cls-2" points="90 64.3 90 65.7 24.3 0 25.7 0 90 64.3"/>
      <polygon class="cls-2" points="90 74.3 90 75.7 14.3 0 15.7 0 90 74.3"/>
      <polygon class="cls-2" points="90 84.3 90 85.7 4.3 0 5.7 0 90 84.3"/>
    </pattern>
  </defs>
  <g>
    <path class="cls-3" d="M112.2723,123.6206v5.897a1.7125,1.7125,0,0,1-1.7154,1.7154H31.1755a1.7188,1.7188,0,0,1-1.7155-1.7154v-5.897A17.6024,17.6024,0,0,1,47.0666,106.014h2.516A45.8958,45.8958,0,0,1,38.3951,76.28V76.121c0-.2237,0-.4475.005-.6712,0-.2287.0049-.4525.01-.6762,0-.07,0-.1343.005-.2039.4674-22.5291,10.2478-31.2255,24.0258-44.0687a7.5918,7.5918,0,0,1-.4873-.6464h-.005A10.8826,10.8826,0,0,1,71.515,12.7552c.06.0049.1194.0049.1741.0149A10.92,10.92,0,0,1,81.718,22.8338a10.8723,10.8723,0,0,1-5.0269,9.9693l-.1293.0845c-2.0684,1.4271-4.0374,5.6435-5.6932,11.0533-.5916,1.9441-1.1436,4.0374-1.6457,6.2152a112.8681,112.8681,0,0,0-2.9585,23.23v.6564a1.372,1.372,0,0,0,.1044.5171c0,.0049.0049.0049.0049.01a1.3353,1.3353,0,0,0,1.2232.8055h9.7257A1.3306,1.3306,0,0,0,78.65,74.0476V72.7449c0-18.4917,4.281-31.1459,7.0257-35.1138a6.2576,6.2576,0,0,1,.4226-.5569.5126.5126,0,0,1,.726-.0546A74.5167,74.5167,0,0,1,93.07,43.13a40.3784,40.3784,0,0,1,6.618,9.3428,46.1094,46.1094,0,0,1-4.7982,53.5408,17.5928,17.5928,0,0,1,17.3829,17.6066Z"/>
    <g>
      <path class="cls-1" d="M112.2723,123.6206v5.897a1.7125,1.7125,0,0,1-1.7154,1.7154H31.1755a1.7188,1.7188,0,0,1-1.7155-1.7154v-5.897A17.6024,17.6024,0,0,1,47.0666,106.014H94.8894a17.5928,17.5928,0,0,1,17.3829,17.6066Z"/>
      <path class="cls-4" d="M79.63,30.0634a10.7912,10.7912,0,0,1-2.9386,2.74l-.1293.0845c-2.0684,1.4271-4.0374,5.6435-5.6932,11.0533-.5916,1.9441-1.1436,4.0374-1.6457,6.2152a112.8681,112.8681,0,0,0-2.9585,23.23v.6564a1.372,1.372,0,0,0,.1044.5171c-2.3966-3.4756-3.59-15.926-3.2171-23.3645a23.8753,23.8753,0,0,1,4.5894-13.44,41.5294,41.5294,0,0,1,2.854-3.2617c2.9883-3.227,6.9562-7.528,7.7319-11.57.84-4.3855-1.3326-8.2787-6.6379-10.1532A10.92,10.92,0,0,1,81.718,22.8338,10.7979,10.7979,0,0,1,79.63,30.0634Z"/>
      <path class="cls-4" d="M106.0819,75.9072A45.9,45.9,0,0,1,94.8894,106.014H59.174c19.148,0,29.893-4.8131,36.4812-17.6265,7.3886-14.38,7.2693-29.2764-2.5856-45.2571a40.3784,40.3784,0,0,1,6.618,9.3428A45.8736,45.8736,0,0,1,106.0819,75.9072Z"/>
      <path class="cls-1" d="M95.6552,88.3875C89.067,101.2009,78.322,106.014,59.174,106.014H49.5826A45.8958,45.8958,0,0,1,38.3951,76.28V76.121c0-.2237,0-.4475.005-.6712,0-.2287.0049-.4525.01-.6762,0-.07,0-.1343.005-.2039.4674-22.5291,10.2478-31.2255,24.0258-44.0687a7.5918,7.5918,0,0,1-.4873-.6464h-.005A10.8826,10.8826,0,0,1,71.515,12.7552c.06.0049.1194.0049.1741.0149,5.3053,1.8745,7.4782,5.7677,6.6379,10.1532-.7757,4.0424-4.7436,8.3434-7.7319,11.57a41.5294,41.5294,0,0,0-2.854,3.2617,23.8753,23.8753,0,0,0-4.5894,13.44c-.3729,7.4385.8205,19.8889,3.2171,23.3645,0,.0049.0049.0049.0049.01a1.3353,1.3353,0,0,0,1.2232.8055h9.7257A1.3306,1.3306,0,0,0,78.65,74.0476V72.7449c0-18.4917,4.281-31.1459,7.0257-35.1138a6.2576,6.2576,0,0,1,.4226-.5569.5126.5126,0,0,1,.726-.0546A74.5167,74.5167,0,0,1,93.07,43.13C102.9245,59.1111,103.0438,74.0079,95.6552,88.3875Z"/>
      <path class="cls-1" d="M71.6891,12.77c-.005-.005-.005-.005-.01-.005"/>
    </g>
    <g>
      <path class="cls-5" d="M112.2722,123.6206v5.8971a1.7124,1.7124,0,0,1-1.7154,1.7153H31.1754a1.7187,1.7187,0,0,1-1.7153-1.7153v-5.8971A17.602,17.602,0,0,1,47.0666,106.014H94.8894a17.5926,17.5926,0,0,1,17.3828,17.6066Z"/>
      <path class="cls-5" d="M106.0818,75.9072A45.9,45.9,0,0,1,94.8894,106.014H49.5826A45.8947,45.8947,0,0,1,38.3951,76.28V76.121c0-.2237,0-.4475.005-.6712,0-.2287.005-.4525.01-.6762,0-.07,0-.1343.005-.2039.4674-22.5291,10.2477-31.2255,24.0257-44.0687a7.6129,7.6129,0,0,1-.4873-.6464h-.0049a10.8864,10.8864,0,1,1,14.7426,2.9485l-.1293.0845c-2.0684,1.4271-4.0375,5.6435-5.6932,11.0533-.5917,1.9441-1.1436,4.0374-1.6458,6.2152a112.8744,112.8744,0,0,0-2.9584,23.23v.6564a1.3326,1.3326,0,0,0,1.3325,1.3325h9.7257A1.33,1.33,0,0,0,78.65,74.0476V72.7449c0-18.4917,4.2811-31.1459,7.0258-35.1138a6.2385,6.2385,0,0,1,.4226-.5569.5125.5125,0,0,1,.7259-.0546c1.805,1.5612,9.6163,8.5472,12.8632,15.4536A45.8735,45.8735,0,0,1,106.0818,75.9072Z"/>
    </g>
  </g>
</svg>
