<svg id="Layer_1" data-name="Layer 1" xmlns="http://www.w3.org/2000/svg" xmlns:xlink="http://www.w3.org/1999/xlink" viewBox="0 0 141.7323 141.7323">
  <defs>
    <style>
      .cls-1, .cls-5, .cls-6 {
        fill: none;
      }

      .cls-2 {
        fill: #262626;
      }

      .cls-3 {
        fill: #404040;
      }

      .cls-4 {
        fill: url(#New_Pattern_3);
      }

      .cls-5, .cls-6 {
        stroke: #000;
        stroke-miterlimit: 10;
      }

      .cls-5 {
        stroke-width: 2.8084px;
      }

      .cls-6 {
        stroke-width: 0.9361px;
      }
    </style>
    <pattern id="New_Pattern_3" data-name="New Pattern 3" width="90" height="90" patternTransform="translate(-9 -60.7323)" patternUnits="userSpaceOnUse" viewBox="0 0 90 90">
      <rect class="cls-1" width="90" height="90"/>
      <polygon class="cls-2" points="0.7 90 0 90 0 89.3 0.7 90"/>
      <polygon class="cls-2" points="10.7 90 9.3 90 0 80.7 0 79.3 10.7 90"/>
      <polygon class="cls-2" points="20.7 90 19.3 90 0 70.7 0 69.3 20.7 90"/>
      <polygon class="cls-2" points="30.7 90 29.3 90 0 60.7 0 59.3 30.7 90"/>
      <polygon class="cls-2" points="40.7 90 39.3 90 0 50.7 0 49.3 40.7 90"/>
      <polygon class="cls-2" points="50.7 90 49.3 90 0 40.7 0 39.3 50.7 90"/>
      <polygon class="cls-2" points="60.7 90 59.3 90 0 30.7 0 29.3 60.7 90"/>
      <polygon class="cls-2" points="70.7 90 69.3 90 0 20.7 0 19.3 70.7 90"/>
      <polygon class="cls-2" points="80.7 90 79.3 90 0 10.7 0 9.3 80.7 90"/>
      <polygon class="cls-2" points="90 89.3 90 90 89.3 90 0 0.7 0 0 0.7 0 90 89.3"/>
      <polygon class="cls-2" points="5.7 90 4.3 90 0 85.7 0 84.3 5.7 90"/>
      <polygon class="cls-2" points="15.7 90 14.3 90 0 75.7 0 74.3 15.7 90"/>
      <polygon class="cls-2" points="25.7 90 24.3 90 0 65.7 0 64.3 25.7 90"/>
      <polygon class="cls-2" points="35.7 90 34.3 90 0 55.7 0 54.3 35.7 90"/>
      <polygon class="cls-2" points="45.7 90 44.3 90 0 45.7 0 44.3 45.7 90"/>
      <polygon class="cls-2" points="55.7 90 54.3 90 0 35.7 0 34.3 55.7 90"/>
      <polygon class="cls-2" points="65.7 90 64.3 90 0 25.7 0 24.3 65.7 90"/>
      <polygon class="cls-2" points="75.7 90 74.3 90 0 15.7 0 14.3 75.7 90"/>
      <polygon class="cls-2" points="85.7 90 84.3 90 0 5.7 0 4.3 85.7 90"/>
      <polygon class="cls-2" points="90 0 90 0.7 89.3 0 90 0"/>
      <polygon class="cls-2" points="90 9.3 90 10.7 79.3 0 80.7 0 90 9.3"/>
      <polygon class="cls-2" points="90 19.3 90 20.7 69.3 0 70.7 0 90 19.3"/>
      <polygon class="cls-2" points="90 29.3 90 30.7 59.3 0 60.7 0 90 29.3"/>
      <polygon class="cls-2" points="90 39.3 90 40.7 49.3 0 50.7 0 90 39.3"/>
      <polygon class="cls-2" points="90 49.3 90 50.7 39.3 0 40.7 0 90 49.3"/>
      <polygon class="cls-2" points="90 59.3 90 60.7 29.3 0 30.7 0 90 59.3"/>
      <polygon class="cls-2" points="90 69.3 90 70.7 19.3 0 20.7 0 90 69.3"/>
      <polygon class="cls-2" points="90 79.3 90 80.7 9.3 0 10.7 0 90 79.3"/>
      <polygon class="cls-2" points="90 4.3 90 5.7 84.3 0 85.7 0 90 4.3"/>
      <polygon class="cls-2" points="90 14.3 90 15.7 74.3 0 75.7 0 90 14.3"/>
      <polygon class="cls-2" points="90 24.3 90 25.7 64.3 0 65.7 0 90 24.3"/>
      <polygon class="cls-2" points="90 34.3 90 35.7 54.3 0 55.7 0 90 34.3"/>
      <polygon class="cls-2" points="90 44.3 90 45.7 44.3 0 45.7 0 90 44.3"/>
      <polygon class="cls-2" points="90 54.3 90 55.7 34.3 0 35.7 0 90 54.3"/>
      <polygon class="cls-2" points="90 64.3 90 65.7 24.3 0 25.7 0 90 64.3"/>
      <polygon class="cls-2" points="90 74.3 90 75.7 14.3 0 15.7 0 90 74.3"/>
      <polygon class="cls-2" points="90 84.3 90 85.7 4.3 0 5.7 0 90 84.3"/>
    </pattern>
  </defs>
  <g>
    <path class="cls-3" d="M110.4016,44.4446c-.0047,0-.0047,0-.0094-.0047a24.7677,24.7677,0,0,0-11.9545-3.0565c-5.3453-.3932-14.145,1.774-18.4138,4.8117L77.66,36.244h7.76a1.0238,1.0238,0,0,0,1.0251-1.02V24.07a1.0248,1.0248,0,0,0-1.0251-1.0251H77.4168V14.2775a1.0228,1.0228,0,0,0-1.02-1.02H65.3359a1.0238,1.0238,0,0,0-1.0251,1.02v8.7669H56.3069a1.0238,1.0238,0,0,0-1.02,1.0251V35.2236a1.0228,1.0228,0,0,0,1.02,1.02h7.7652l-2.3684,9.9511C57.44,43.1574,48.64,40.99,43.29,41.3834A24.8755,24.8755,0,0,0,20.289,75.6928a39.349,39.349,0,0,0,2.4994,4.61.04.04,0,0,1,.0141.0281c5.219,8.3644,14.0842,17.5573,18.0908,21.5358,1.2872,1.2779,2.0736,2.0174,2.0736,2.0174-.7068.2153-1.3808.454-2.0314.7161-.0562.0188-.1123.0422-.1685.0656l-.0422.014c-.08.0328-.1638.0655-.248.0983s-.1639.0655-.2434.0983l-.0047.0047c-.2106.0889-.4166.1826-.6179.2761a15.3528,15.3528,0,0,0-8.7575,13.8736v5.3828a1.8929,1.8929,0,0,0,1.83,1.8957.2872.2872,0,0,0,.0656.0047h76.23a.3537.3537,0,0,0,.07-.0047,1.8961,1.8961,0,0,0,1.83-1.8957v-5.3828a15.3569,15.3569,0,0,0-8.7622-13.8736c-.2013-.0935-.4073-.1872-.6179-.2761l-.0047-.0047c-.08-.0328-.1591-.0655-.2434-.0983s-.1685-.0655-.248-.0983l-.0422-.014c-.0562-.0234-.1123-.0468-.1685-.0656-.6506-.2621-1.3246-.5008-2.0314-.7161,0,0,.7864-.74,2.0736-2.0174,4.0019-3.9739,12.8718-13.1667,18.0908-21.5358a.1.1,0,0,1,.0187-.0281,38.9672,38.9672,0,0,0,2.4574-4.5262,24.8671,24.8671,0,0,0-11-31.3325ZM41.7265,67.9c0-4.6339,4.1518-6.4172,7.3393-6.4172,3.225,0,8.2942,1.5867,10.8546,4.1985a1.777,1.777,0,0,1,.5008,1.24V84.17a.6252.6252,0,0,1-.0047.0936,1.7474,1.7474,0,0,1-1.231,1.6008.0172.0172,0,0,0-.014.0046,4.0137,4.0137,0,0,1-.749.103,11.1767,11.1767,0,0,1-7.19-2.345C48.0221,81.2207,41.7265,73.7316,41.7265,67.9ZM90.4993,83.6266a11.1909,11.1909,0,0,1-7.19,2.345,4.0123,4.0123,0,0,1-.749-.103.0173.0173,0,0,0-.014-.0046,1.7411,1.7411,0,0,1-1.231-1.6008.6252.6252,0,0,1-.0047-.0936V66.9212a1.7726,1.7726,0,0,1,.4961-1.24c2.56-2.6118,7.63-4.1985,10.8546-4.1985,3.1922,0,7.344,1.7833,7.344,6.4172C100.0058,73.7316,93.71,81.2207,90.4993,83.6266Z"/>
    <g>
      <path class="cls-1" d="M119.81,60.7848a25.6626,25.6626,0,0,0-9.4082-16.34c-.0047,0-.0047,0-.0094-.0047a24.7677,24.7677,0,0,0-11.9545-3.0565c-5.3453-.3932-14.145,1.774-18.4138,4.8117L77.66,36.244h7.76a1.0238,1.0238,0,0,0,1.0251-1.02V24.07a1.0248,1.0248,0,0,0-1.0251-1.0251H77.4168V14.2775a1.0228,1.0228,0,0,0-1.02-1.02H65.3359a1.0238,1.0238,0,0,0-1.0251,1.02v8.7669H56.3069a1.0238,1.0238,0,0,0-1.02,1.0251V35.2236a1.0228,1.0228,0,0,0,1.02,1.02h7.7652l-2.3684,9.9511C57.44,43.1574,48.64,40.99,43.29,41.3834A24.8755,24.8755,0,0,0,20.289,75.6928a39.349,39.349,0,0,0,2.4994,4.61.04.04,0,0,1,.0141.0281c5.219,8.3644,14.0842,17.5573,18.0908,21.5358,1.2872,1.2779,2.0736,2.0174,2.0736,2.0174a56.3678,56.3678,0,0,1,12.7783-2.0174c4.2547-.2808,9.2256-.3744,15.1186-.3744.8753,0,1.7319,0,2.57.0046,20.3282,0,28.29-6.2159,35.25-14.4212C120.3621,73.315,120.4791,65.8119,119.81,60.7848ZM60.4212,84.17a.6252.6252,0,0,1-.0047.0936,1.7474,1.7474,0,0,1-1.231,1.6008.0172.0172,0,0,0-.014.0046,4.0137,4.0137,0,0,1-.749.103,11.1767,11.1767,0,0,1-7.19-2.345c-3.2109-2.4059-9.5065-9.895-9.5065-15.7271,0-4.6339,4.1518-6.4172,7.3393-6.4172,3.225,0,8.2942,1.5867,10.8546,4.1985a1.777,1.777,0,0,1,.5008,1.24Zm30.0781-.543a11.1909,11.1909,0,0,1-7.19,2.345,4.0123,4.0123,0,0,1-.749-.103.0173.0173,0,0,0-.014-.0046,1.7411,1.7411,0,0,1-1.231-1.6008.6252.6252,0,0,1-.0047-.0936V66.9212a1.7726,1.7726,0,0,1,.4961-1.24c2.56-2.6118,7.63-4.1985,10.8546-4.1985,3.1922,0,7.344,1.7833,7.344,6.4172C100.0058,73.7316,93.71,81.2207,90.4993,83.6266Z"/>
      <path class="cls-4" d="M123.3016,66.2425a24.6682,24.6682,0,0,1-1.9,9.5346,38.9672,38.9672,0,0,1-2.4574,4.5262.1.1,0,0,0-.0187.0281c-5.219,8.3691-14.0889,17.5619-18.0908,21.5358-1.2872,1.2779-2.0736,2.0174-2.0736,2.0174a56.2773,56.2773,0,0,0-12.7736-2.0174c-3.6228-.2387-7.7653-.3416-12.5536-.37,20.3282,0,28.29-6.2159,35.25-14.4212C120.3621,73.315,120.4791,65.8119,119.81,60.7848a25.6626,25.6626,0,0,0-9.4082-16.34A24.8543,24.8543,0,0,1,123.3016,66.2425Z"/>
      <path class="cls-1" d="M22.7884,80.3033a24.4682,24.4682,0,0,1-2.4994-4.61A39.349,39.349,0,0,0,22.7884,80.3033Z"/>
      <path class="cls-1" d="M121.4012,75.7771a24.4231,24.4231,0,0,1-2.4574,4.5262A38.9672,38.9672,0,0,0,121.4012,75.7771Z"/>
      <path class="cls-1" d="M110.879,119.0313v5.3828a1.8961,1.8961,0,0,1-1.83,1.8957.3537.3537,0,0,1-.07.0047H32.749a.2872.2872,0,0,1-.0656-.0047,1.8929,1.8929,0,0,1-1.83-1.8957v-5.3828a15.3528,15.3528,0,0,1,8.7575-13.8736c.2013-.0935.4073-.1872.6179-.2761l.0047-.0047c.0795-.0328.1591-.0655.2434-.0983s.1685-.0655.248-.0983l.0422-.014c.0562-.0234.1123-.0468.1685-.0656.6506-.2621,1.3246-.5008,2.0314-.7161a56.3678,56.3678,0,0,1,12.7783-2.0174c4.2547-.2808,9.2256-.3744,15.1186-.3744.8753,0,1.7319,0,2.57.0046,4.7883.0282,8.9308.1311,12.5536.37a56.2773,56.2773,0,0,1,12.7736,2.0174c.7068.2153,1.3808.454,2.0314.7161.0562.0188.1123.0422.1685.0656l.0422.014c.08.0328.1638.0655.248.0983s.1639.0655.2434.0983l.0047.0047c.2106.0889.4166.1826.6179.2761A15.3569,15.3569,0,0,1,110.879,119.0313Z"/>
      <path class="cls-1" d="M121.4433,75.6928a.7045.7045,0,0,1-.0421.0843"/>
      <path class="cls-1" d="M110.4016,44.4446c-.0047,0-.0047,0-.0094-.0047"/>
    </g>
    <g>
      <path class="cls-5" d="M98.4377,41.3834c-5.3453-.3932-14.145,1.774-18.4138,4.8117L77.66,36.244h7.76a1.0238,1.0238,0,0,0,1.0251-1.02V24.07a1.0248,1.0248,0,0,0-1.0251-1.0251H77.4168V14.2775a1.0228,1.0228,0,0,0-1.02-1.02H65.3359a1.0238,1.0238,0,0,0-1.0251,1.02v8.7669H56.3069a1.0238,1.0238,0,0,0-1.02,1.0251V35.2236a1.0228,1.0228,0,0,0,1.02,1.02h7.7652l-2.3684,9.9511C57.44,43.1574,48.64,40.99,43.29,41.3834A24.8755,24.8755,0,0,0,20.289,75.6928a39.349,39.349,0,0,0,2.4994,4.61.04.04,0,0,1,.0141.0281c5.219,8.3644,14.0842,17.5573,18.0908,21.5358,1.2872,1.2779,2.0736,2.0174,2.0736,2.0174a56.3678,56.3678,0,0,1,12.7783-2.0174c4.2547-.2808,9.2256-.3744,15.1186-.3744,5.8977,0,10.8685.0936,15.1233.3744a56.2773,56.2773,0,0,1,12.7736,2.0174s.7864-.74,2.0736-2.0174c4.0019-3.9739,12.8718-13.1667,18.0908-21.5358a.1.1,0,0,1,.0187-.0281,38.9672,38.9672,0,0,0,2.4574-4.5262A24.8607,24.8607,0,0,0,98.4377,41.3834ZM60.4212,84.17a.6252.6252,0,0,1-.0047.0936,1.7474,1.7474,0,0,1-1.231,1.6008.0172.0172,0,0,0-.014.0046,4.0137,4.0137,0,0,1-.749.103,11.1767,11.1767,0,0,1-7.19-2.345c-3.2109-2.4059-9.5065-9.895-9.5065-15.7271,0-4.6339,4.1518-6.4172,7.3393-6.4172,3.225,0,8.2942,1.5867,10.8546,4.1985a1.777,1.777,0,0,1,.5008,1.24Zm30.0781-.543a11.1909,11.1909,0,0,1-7.19,2.345,4.0123,4.0123,0,0,1-.749-.103.0173.0173,0,0,0-.014-.0046,1.7411,1.7411,0,0,1-1.231-1.6008.6252.6252,0,0,1-.0047-.0936V66.9212a1.7726,1.7726,0,0,1,.4961-1.24c2.56-2.6118,7.63-4.1985,10.8546-4.1985,3.1922,0,7.344,1.7833,7.344,6.4172C100.0058,73.7316,93.71,81.2207,90.4993,83.6266Z"/>
      <path class="cls-6" d="M22.7884,80.3033a24.4682,24.4682,0,0,1-2.4994-4.61A39.349,39.349,0,0,0,22.7884,80.3033Z"/>
      <path class="cls-6" d="M121.4012,75.7771a24.4231,24.4231,0,0,1-2.4574,4.5262A38.9672,38.9672,0,0,0,121.4012,75.7771Z"/>
      <path class="cls-5" d="M110.879,119.0313v5.3828a1.8961,1.8961,0,0,1-1.83,1.8957.3537.3537,0,0,1-.07.0047H32.749a.2872.2872,0,0,1-.0656-.0047,1.8929,1.8929,0,0,1-1.83-1.8957v-5.3828a15.3528,15.3528,0,0,1,8.7575-13.8736c.2013-.0935.4073-.1872.6179-.2761l.0047-.0047c.0795-.0328.1591-.0655.2434-.0983s.1685-.0655.248-.0983l.0422-.014c.0562-.0234.1123-.0468.1685-.0656.6506-.2621,1.3246-.5008,2.0314-.7161a56.3678,56.3678,0,0,1,12.7783-2.0174c4.2547-.2808,9.2256-.3744,15.1186-.3744,5.8977,0,10.8685.0936,15.1233.3744a56.2773,56.2773,0,0,1,12.7736,2.0174c.7068.2153,1.3808.454,2.0314.7161.0562.0188.1123.0422.1685.0656l.0422.014c.08.0328.1638.0655.248.0983s.1639.0655.2434.0983l.0047.0047c.2106.0889.4166.1826.6179.2761A15.3569,15.3569,0,0,1,110.879,119.0313Z"/>
      <path class="cls-6" d="M121.4433,75.6928a.7045.7045,0,0,1-.0421.0843"/>
    </g>
  </g>
</svg>
