<svg id="Layer_1" data-name="Layer 1" xmlns="http://www.w3.org/2000/svg" xmlns:xlink="http://www.w3.org/1999/xlink" viewBox="0 0 141.7323 141.7323">
  <defs>
    <style>
      .cls-1, .cls-5 {
        fill: none;
      }

      .cls-2 {
        fill: #262626;
      }

      .cls-3 {
        fill: #404040;
        stroke-width: 1.0019px;
      }

      .cls-3, .cls-5 {
        stroke: #000;
        stroke-miterlimit: 10;
      }

      .cls-4 {
        fill: url(#New_Pattern_3);
      }

      .cls-5 {
        stroke-width: 3.0058px;
      }
    </style>
    <pattern id="New_Pattern_3" data-name="New Pattern 3" width="90" height="90" patternTransform="translate(-9 -60.7323)" patternUnits="userSpaceOnUse" viewBox="0 0 90 90">
      <rect class="cls-1" width="90" height="90"/>
      <polygon class="cls-2" points="0.7 90 0 90 0 89.3 0.7 90"/>
      <polygon class="cls-2" points="10.7 90 9.3 90 0 80.7 0 79.3 10.7 90"/>
      <polygon class="cls-2" points="20.7 90 19.3 90 0 70.7 0 69.3 20.7 90"/>
      <polygon class="cls-2" points="30.7 90 29.3 90 0 60.7 0 59.3 30.7 90"/>
      <polygon class="cls-2" points="40.7 90 39.3 90 0 50.7 0 49.3 40.7 90"/>
      <polygon class="cls-2" points="50.7 90 49.3 90 0 40.7 0 39.3 50.7 90"/>
      <polygon class="cls-2" points="60.7 90 59.3 90 0 30.7 0 29.3 60.7 90"/>
      <polygon class="cls-2" points="70.7 90 69.3 90 0 20.7 0 19.3 70.7 90"/>
      <polygon class="cls-2" points="80.7 90 79.3 90 0 10.7 0 9.3 80.7 90"/>
      <polygon class="cls-2" points="90 89.3 90 90 89.3 90 0 0.7 0 0 0.7 0 90 89.3"/>
      <polygon class="cls-2" points="5.7 90 4.3 90 0 85.7 0 84.3 5.7 90"/>
      <polygon class="cls-2" points="15.7 90 14.3 90 0 75.7 0 74.3 15.7 90"/>
      <polygon class="cls-2" points="25.7 90 24.3 90 0 65.7 0 64.3 25.7 90"/>
      <polygon class="cls-2" points="35.7 90 34.3 90 0 55.7 0 54.3 35.7 90"/>
      <polygon class="cls-2" points="45.7 90 44.3 90 0 45.7 0 44.3 45.7 90"/>
      <polygon class="cls-2" points="55.7 90 54.3 90 0 35.7 0 34.3 55.7 90"/>
      <polygon class="cls-2" points="65.7 90 64.3 90 0 25.7 0 24.3 65.7 90"/>
      <polygon class="cls-2" points="75.7 90 74.3 90 0 15.7 0 14.3 75.7 90"/>
      <polygon class="cls-2" points="85.7 90 84.3 90 0 5.7 0 4.3 85.7 90"/>
      <polygon class="cls-2" points="90 0 90 0.7 89.3 0 90 0"/>
      <polygon class="cls-2" points="90 9.3 90 10.7 79.3 0 80.7 0 90 9.3"/>
      <polygon class="cls-2" points="90 19.3 90 20.7 69.3 0 70.7 0 90 19.3"/>
      <polygon class="cls-2" points="90 29.3 90 30.7 59.3 0 60.7 0 90 29.3"/>
      <polygon class="cls-2" points="90 39.3 90 40.7 49.3 0 50.7 0 90 39.3"/>
      <polygon class="cls-2" points="90 49.3 90 50.7 39.3 0 40.7 0 90 49.3"/>
      <polygon class="cls-2" points="90 59.3 90 60.7 29.3 0 30.7 0 90 59.3"/>
      <polygon class="cls-2" points="90 69.3 90 70.7 19.3 0 20.7 0 90 69.3"/>
      <polygon class="cls-2" points="90 79.3 90 80.7 9.3 0 10.7 0 90 79.3"/>
      <polygon class="cls-2" points="90 4.3 90 5.7 84.3 0 85.7 0 90 4.3"/>
      <polygon class="cls-2" points="90 14.3 90 15.7 74.3 0 75.7 0 90 14.3"/>
      <polygon class="cls-2" points="90 24.3 90 25.7 64.3 0 65.7 0 90 24.3"/>
      <polygon class="cls-2" points="90 34.3 90 35.7 54.3 0 55.7 0 90 34.3"/>
      <polygon class="cls-2" points="90 44.3 90 45.7 44.3 0 45.7 0 90 44.3"/>
      <polygon class="cls-2" points="90 54.3 90 55.7 34.3 0 35.7 0 90 54.3"/>
      <polygon class="cls-2" points="90 64.3 90 65.7 24.3 0 25.7 0 90 64.3"/>
      <polygon class="cls-2" points="90 74.3 90 75.7 14.3 0 15.7 0 90 74.3"/>
      <polygon class="cls-2" points="90 84.3 90 85.7 4.3 0 5.7 0 90 84.3"/>
    </pattern>
  </defs>
  <g>
    <path class="cls-3" d="M110.9979,129.1044q0,.3719-.01.7417a1.4527,1.4527,0,0,1-1.4577,1.4025H32.3228a1.4534,1.4534,0,0,1-1.4582-1.4062q-.01-.4023-.01-.8081A31,31,0,0,1,46.84,101.9324,31,31,0,0,0,59.7648,80.6517H51.6693a4.5186,4.5186,0,0,1-4.5186-4.5187V73.0205A2.1394,2.1394,0,0,1,48.42,71.0649a79.5837,79.5837,0,0,1,10.1527-3.879q.3524-.09.7095-.1736a.416.416,0,0,0,.1572-.7356,19.1081,19.1081,0,1,1,22.9761.0047.4159.4159,0,0,0,.1552.7351q.3606.0857.7194.1794a78.9161,78.9161,0,0,1,10.1493,3.8812,2.14,2.14,0,0,1,1.2675,1.9548V76.133a4.5187,4.5187,0,0,1-4.5187,4.5187h-8.09a31.0175,31.0175,0,0,0,12.7344,21.15l.0181.0113a29.6078,29.6078,0,0,1,3.0427,1.9023A30.89,30.89,0,0,1,110.9979,129.1044Z"/>
    <path class="cls-4" d="M90.188,50.9749a19.0878,19.0878,0,0,1-5.9012,13.8164c-.0652.0651-.1353.1253-.2.1854-5.8362.3256-10.6554.2805-15.4246.14,0,0,12.003-3.0358,15.2793-11.2816,3.2712-8.2457-1.037-15.84-8.9221-21.5763A19.139,19.139,0,0,1,90.188,50.9749Z"/>
    <path class="cls-4" d="M108.3127,116.1045c-1.598.4309-11.502-1.8535-25.073-9.3679-13.5659-7.5144-24.587-20.6395-24.587-20.6395a30.7176,30.7176,0,0,0,1.2323-5.4454H51.79A4.4446,4.4446,0,0,1,49.41,79.97s28.6148.4609,31.6506-.4559A6.4418,6.4418,0,0,0,85.81,74.1893c.4709-3.5568-2.69-6.9182-2.8755-7.1086.16.0351.3156.0752.4759.1152a49.4734,49.4734,0,0,1,11.3517,4.4235.2669.2669,0,0,1,.0651.0351V76.133a4.5154,4.5154,0,0,1-4.5136,4.5187H82.2178a31.0175,31.0175,0,0,0,12.7344,21.15.1093.1093,0,0,0,.025.015,29.6151,29.6151,0,0,1,3.0358,1.8986A31.023,31.023,0,0,1,108.3127,116.1045Z"/>
    <path class="cls-1" d="M47.2709,76.133V71.6394a.2928.2928,0,0,1,.04-.02,49.7252,49.7252,0,0,1,11.3817-4.4335c.5311-.1353,1.0721-.2605,1.6132-.3757a19.1022,19.1022,0,0,1-8.3911-15.8353A19.154,19.154,0,0,1,75.014,32.254a.0049.0049,0,0,1,.005.005c7.8851,5.736,12.1933,13.3306,8.9221,21.5763-3.2763,8.2458-15.2793,11.2816-15.2793,11.2816,4.7692.14,9.5884.1854,15.4246-.14a19.3192,19.3192,0,0,1-2.2944,1.8385c.3857.08.7614.1653,1.1371.26l.0051.005c.1853.19,3.3464,3.5518,2.8755,7.1086a6.4418,6.4418,0,0,1-4.7491,5.3252c-3.0358.9168-31.6506.4559-31.6506.4559A4.5034,4.5034,0,0,1,47.2709,76.133Z"/>
    <path class="cls-1" d="M111.1181,129.1044c0,.7214-.03,1.4378-.08,2.1442H31.0548c-.0551-.7315-.08-1.4678-.08-2.2143A31,31,0,0,1,46.96,101.9324,30.7865,30.7865,0,0,0,57.0045,90.1749a31.422,31.422,0,0,0,1.6482-4.0778s11.0211,13.1251,24.587,20.64c13.571,7.5144,23.475,9.7988,25.073,9.3679A30.8684,30.8684,0,0,1,111.1181,129.1044Z"/>
    <path class="cls-1" d="M82.9342,67.0807l-.0051-.005-.005-.005"/>
    <path class="cls-5" d="M110.9979,129.1044q0,.3719-.01.7417a1.4527,1.4527,0,0,1-1.4577,1.4025H32.3228a1.4534,1.4534,0,0,1-1.4582-1.4062q-.01-.4023-.01-.8081A31,31,0,0,1,46.84,101.9324,31,31,0,0,0,59.7648,80.6517H51.6693a4.5186,4.5186,0,0,1-4.5186-4.5187V73.0205A2.1394,2.1394,0,0,1,48.42,71.0649a79.5837,79.5837,0,0,1,10.1527-3.879q.3524-.09.7095-.1736a.416.416,0,0,0,.1572-.7356,19.1081,19.1081,0,1,1,22.9761.0047.4159.4159,0,0,0,.1552.7351q.3606.0857.7194.1794a78.9161,78.9161,0,0,1,10.1493,3.8812,2.14,2.14,0,0,1,1.2675,1.9548V76.133a4.5187,4.5187,0,0,1-4.5187,4.5187h-8.09a31.0175,31.0175,0,0,0,12.7344,21.15l.0181.0113a29.6078,29.6078,0,0,1,3.0427,1.9023A30.89,30.89,0,0,1,110.9979,129.1044Z"/>
  </g>
</svg>
