<svg id="Layer_1" data-name="Layer 1" xmlns="http://www.w3.org/2000/svg" xmlns:xlink="http://www.w3.org/1999/xlink" viewBox="0 0 141.7323 141.7323">
  <defs>
    <style>
      .cls-1, .cls-5 {
        fill: none;
      }

      .cls-2 {
        fill: #262626;
      }

      .cls-3 {
        fill: #404040;
      }

      .cls-4 {
        fill: url(#New_Pattern_3);
      }

      .cls-5 {
        stroke: #000;
        stroke-miterlimit: 10;
        stroke-width: 2.8404px;
      }
    </style>
    <pattern id="New_Pattern_3" data-name="New Pattern 3" width="90" height="90" patternTransform="translate(-9 -60.7323)" patternUnits="userSpaceOnUse" viewBox="0 0 90 90">
      <rect class="cls-1" width="90" height="90"/>
      <polygon class="cls-2" points="0.7 90 0 90 0 89.3 0.7 90"/>
      <polygon class="cls-2" points="10.7 90 9.3 90 0 80.7 0 79.3 10.7 90"/>
      <polygon class="cls-2" points="20.7 90 19.3 90 0 70.7 0 69.3 20.7 90"/>
      <polygon class="cls-2" points="30.7 90 29.3 90 0 60.7 0 59.3 30.7 90"/>
      <polygon class="cls-2" points="40.7 90 39.3 90 0 50.7 0 49.3 40.7 90"/>
      <polygon class="cls-2" points="50.7 90 49.3 90 0 40.7 0 39.3 50.7 90"/>
      <polygon class="cls-2" points="60.7 90 59.3 90 0 30.7 0 29.3 60.7 90"/>
      <polygon class="cls-2" points="70.7 90 69.3 90 0 20.7 0 19.3 70.7 90"/>
      <polygon class="cls-2" points="80.7 90 79.3 90 0 10.7 0 9.3 80.7 90"/>
      <polygon class="cls-2" points="90 89.3 90 90 89.3 90 0 0.7 0 0 0.7 0 90 89.3"/>
      <polygon class="cls-2" points="5.7 90 4.3 90 0 85.7 0 84.3 5.7 90"/>
      <polygon class="cls-2" points="15.7 90 14.3 90 0 75.7 0 74.3 15.7 90"/>
      <polygon class="cls-2" points="25.7 90 24.3 90 0 65.7 0 64.3 25.7 90"/>
      <polygon class="cls-2" points="35.7 90 34.3 90 0 55.7 0 54.3 35.7 90"/>
      <polygon class="cls-2" points="45.7 90 44.3 90 0 45.7 0 44.3 45.7 90"/>
      <polygon class="cls-2" points="55.7 90 54.3 90 0 35.7 0 34.3 55.7 90"/>
      <polygon class="cls-2" points="65.7 90 64.3 90 0 25.7 0 24.3 65.7 90"/>
      <polygon class="cls-2" points="75.7 90 74.3 90 0 15.7 0 14.3 75.7 90"/>
      <polygon class="cls-2" points="85.7 90 84.3 90 0 5.7 0 4.3 85.7 90"/>
      <polygon class="cls-2" points="90 0 90 0.7 89.3 0 90 0"/>
      <polygon class="cls-2" points="90 9.3 90 10.7 79.3 0 80.7 0 90 9.3"/>
      <polygon class="cls-2" points="90 19.3 90 20.7 69.3 0 70.7 0 90 19.3"/>
      <polygon class="cls-2" points="90 29.3 90 30.7 59.3 0 60.7 0 90 29.3"/>
      <polygon class="cls-2" points="90 39.3 90 40.7 49.3 0 50.7 0 90 39.3"/>
      <polygon class="cls-2" points="90 49.3 90 50.7 39.3 0 40.7 0 90 49.3"/>
      <polygon class="cls-2" points="90 59.3 90 60.7 29.3 0 30.7 0 90 59.3"/>
      <polygon class="cls-2" points="90 69.3 90 70.7 19.3 0 20.7 0 90 69.3"/>
      <polygon class="cls-2" points="90 79.3 90 80.7 9.3 0 10.7 0 90 79.3"/>
      <polygon class="cls-2" points="90 4.3 90 5.7 84.3 0 85.7 0 90 4.3"/>
      <polygon class="cls-2" points="90 14.3 90 15.7 74.3 0 75.7 0 90 14.3"/>
      <polygon class="cls-2" points="90 24.3 90 25.7 64.3 0 65.7 0 90 24.3"/>
      <polygon class="cls-2" points="90 34.3 90 35.7 54.3 0 55.7 0 90 34.3"/>
      <polygon class="cls-2" points="90 44.3 90 45.7 44.3 0 45.7 0 90 44.3"/>
      <polygon class="cls-2" points="90 54.3 90 55.7 34.3 0 35.7 0 90 54.3"/>
      <polygon class="cls-2" points="90 64.3 90 65.7 24.3 0 25.7 0 90 64.3"/>
      <polygon class="cls-2" points="90 74.3 90 75.7 14.3 0 15.7 0 90 74.3"/>
      <polygon class="cls-2" points="90 84.3 90 85.7 4.3 0 5.7 0 90 84.3"/>
    </pattern>
  </defs>
  <g>
    <path class="cls-3" d="M126.0417,49.71A12.0853,12.0853,0,0,1,114.68,61.772L98.8776,102.13,98.3,103.6022a27.1356,27.1356,0,0,1,7.03,2.84,12.0738,12.0738,0,0,1,5.8419,10.3487v7.5035a2.0072,2.0072,0,0,1-2.0025,2.0072H32.5628a2.0082,2.0082,0,0,1-2.0072-2.0072v-7.5035a12.0777,12.0777,0,0,1,5.8466-10.3487,27.0487,27.0487,0,0,1,7.0395-2.84l-.5776-1.4723L27.0619,61.772A12.0783,12.0783,0,1,1,38.078,56.0343c-.0757.1231-.1515.2462-.232.3645l5.0513,5.2217,6.8265,7.0538.7717-29.9477A12.0859,12.0859,0,0,1,55.0165,15.43a11.9377,11.9377,0,0,1,2.6511.2936c.0047,0,.0047.0047.0094.0047a12.086,12.086,0,0,1,4.9945,21.1423L67.69,52.4459l3.1765,9.8468h.0048l8.1946-25.4219a12.0874,12.0874,0,0,1,13-20.1955l.0094.0095a12.0839,12.0839,0,0,1-.8332,22.037l.4261,16.4651v.0047l.3456,13.4827,11.873-12.2755a12.0907,12.0907,0,0,1,14.5573-17.9137l.0047.0048A12.08,12.08,0,0,1,126.0417,49.71Z"/>
    <g>
      <path class="cls-1" d="M111.172,116.7913v7.5035a2.0072,2.0072,0,0,1-2.0025,2.0072H32.5628a2.0082,2.0082,0,0,1-2.0072-2.0072v-7.5035a12.0777,12.0777,0,0,1,5.8466-10.3487,27.0487,27.0487,0,0,1,7.0395-2.84A68.7871,68.7871,0,0,1,50.24,102.13,138.2141,138.2141,0,0,1,67.6,100.473a.129.129,0,0,0,.0426-.0048c1.0747-.0378,2.1493-.071,3.2239-.09A144.5831,144.5831,0,0,1,91.4925,102.13,69.3048,69.3048,0,0,1,98.3,103.6022a27.1356,27.1356,0,0,1,7.03,2.84A12.0738,12.0738,0,0,1,111.172,116.7913Z"/>
      <path class="cls-4" d="M126.0417,49.71A12.0853,12.0853,0,0,1,114.68,61.772L98.8776,102.13,98.3,103.6022a69.3048,69.3048,0,0,0-6.8076-1.4723,144.5831,144.5831,0,0,0-20.6264-1.7516c-1.0746.0189-2.1492.0521-3.2239.09C78.6963,99.72,83.98,96.2549,90.4084,89.2343c5.7329-6.2537,15.93-19.8925,21.46-32.0922a1.574,1.574,0,0,1,.9468-.8521c1.5054-.4971,5.2406-1.941,7.2147-4.5874,2.5185-3.3706,2.3434-8.9379-1.5812-13.2127A12.08,12.08,0,0,1,126.0417,49.71Z"/>
      <path class="cls-4" d="M91.2415,38.7218l.4261,16.4651a44.4092,44.4092,0,0,1-4.5873-14.16c-.3645-2.5374-1.0509-6.9354.8143-8.6018,2.0214-1.7989,4.7482-2.0261,6.391-4.9518,1.335-2.3718,2.23-6.77-2.2109-10.7889a12.0839,12.0839,0,0,1-.8332,22.037Z"/>
      <path class="cls-4" d="M62.7472,25.1777c.516-3.4322-.5444-6.8975-5.07-9.4492a12.086,12.086,0,0,1,4.9945,21.1423L67.69,52.4459c-1.4818-1.6569-8.8622-9.17-9.2125-18.6948C58.3966,31.6586,62.0845,29.604,62.7472,25.1777Z"/>
      <path class="cls-4" d="M42.8973,61.6205s-7.958-.729-9.7427-6.0028c-1.3445-3.9766,1.5954-6.746,2.3007-10.6138.2557-1.4155-.355-4-4.0144-6.8123A12.09,12.09,0,0,1,38.078,56.0343c-.0757.1231-.1515.2462-.232.3645Z"/>
      <path class="cls-1" d="M120.0294,51.7026c-1.9741,2.6464-5.7093,4.09-7.2147,4.5874a1.574,1.574,0,0,0-.9468.8521c-5.5294,12.2-15.7266,25.8385-21.46,32.0922C83.98,96.2549,78.6963,99.72,67.6422,100.4682a.129.129,0,0,1-.0426.0048A138.2141,138.2141,0,0,0,50.24,102.13a68.7871,68.7871,0,0,0-6.7981,1.4723l-.5776-1.4723L27.0619,61.772a12.0849,12.0849,0,1,1,4.379-23.58c3.6594,2.8121,4.27,5.3968,4.0144,6.8123-.7053,3.8678-3.6452,6.6372-2.3007,10.6138,1.7847,5.2738,9.7427,6.0028,9.7427,6.0028l6.8265,7.0538.7717-29.9477A12.0859,12.0859,0,0,1,55.0165,15.43a11.9377,11.9377,0,0,1,2.6511.2936c.0047,0,.0047.0047.0094.0047,4.5258,2.5517,5.5862,6.017,5.07,9.4492-.6627,4.4263-4.3506,6.4809-4.27,8.5734.35,9.5249,7.7307,17.0379,9.2125,18.6948l3.1765,9.8468h.0048l8.1946-25.4219a12.0874,12.0874,0,0,1,13-20.1955l.0094.0095c4.4406,4.0192,3.5459,8.4171,2.2109,10.7889-1.6428,2.9257-4.37,3.1529-6.391,4.9518-1.8652,1.6664-1.1788,6.0644-.8143,8.6018a44.4092,44.4092,0,0,0,4.5873,14.16v.0047l.3456,13.4827,11.873-12.2755a12.0907,12.0907,0,0,1,14.5573-17.9137l.0047.0048C122.3728,42.7647,122.5479,48.332,120.0294,51.7026Z"/>
      <line class="cls-1" x1="118.4482" y1="38.4899" x2="118.4435" y2="38.4851"/>
      <path class="cls-1" d="M67.6422,100.4682a.1293.1293,0,0,1-.0426.0048"/>
      <path class="cls-1" d="M92.0747,16.6848l-.0094-.0095"/>
      <path class="cls-1" d="M57.677,15.7285c-.0047,0-.0047-.0047-.0094-.0047"/>
    </g>
    <g>
      <path class="cls-5" d="M111.172,116.7913v7.5035a2.0072,2.0072,0,0,1-2.0025,2.0072H32.5628a2.0082,2.0082,0,0,1-2.0072-2.0072v-7.5035a12.0777,12.0777,0,0,1,5.8466-10.3487,27.0487,27.0487,0,0,1,7.0395-2.84A68.7871,68.7871,0,0,1,50.24,102.13a144.5829,144.5829,0,0,1,20.6263-1.7516A144.5831,144.5831,0,0,1,91.4925,102.13,69.3048,69.3048,0,0,1,98.3,103.6022a27.1356,27.1356,0,0,1,7.03,2.84A12.0738,12.0738,0,0,1,111.172,116.7913Z"/>
      <path class="cls-5" d="M126.0417,49.71A12.0853,12.0853,0,0,1,114.68,61.772L98.8776,102.13,98.3,103.6022a69.3048,69.3048,0,0,0-6.8076-1.4723,144.5831,144.5831,0,0,0-20.6264-1.7516A144.5829,144.5829,0,0,0,50.24,102.13a68.7871,68.7871,0,0,0-6.7981,1.4723l-.5776-1.4723L27.0619,61.772A12.0783,12.0783,0,1,1,38.078,56.0343c-.0757.1231-.1515.2462-.232.3645L49.7238,68.6743l.7717-29.9477a12.086,12.086,0,1,1,12.176-1.8558l8.1946,25.4219h.0048l8.1946-25.4219a12.0855,12.0855,0,1,1,12.176,1.851l.7717,29.9525,11.873-12.2755A12.0872,12.0872,0,1,1,126.0417,49.71Z"/>
    </g>
  </g>
</svg>
