<svg id="Layer_1" data-name="Layer 1" xmlns="http://www.w3.org/2000/svg" xmlns:xlink="http://www.w3.org/1999/xlink" viewBox="0 0 141.7323 141.7323">
  <defs>
    <style>
      .cls-1, .cls-5 {
        fill: none;
      }

      .cls-2 {
        fill: #262626;
      }

      .cls-3 {
        fill: #404040;
      }

      .cls-4 {
        fill: url(#New_Pattern_3);
      }

      .cls-5 {
        stroke: #000;
        stroke-miterlimit: 10;
        stroke-width: 2.8667px;
      }
    </style>
    <pattern id="New_Pattern_3" data-name="New Pattern 3" width="90" height="90" patternTransform="translate(-9 -60.7323)" patternUnits="userSpaceOnUse" viewBox="0 0 90 90">
      <rect class="cls-1" width="90" height="90"/>
      <polygon class="cls-2" points="0.7 90 0 90 0 89.3 0.7 90"/>
      <polygon class="cls-2" points="10.7 90 9.3 90 0 80.7 0 79.3 10.7 90"/>
      <polygon class="cls-2" points="20.7 90 19.3 90 0 70.7 0 69.3 20.7 90"/>
      <polygon class="cls-2" points="30.7 90 29.3 90 0 60.7 0 59.3 30.7 90"/>
      <polygon class="cls-2" points="40.7 90 39.3 90 0 50.7 0 49.3 40.7 90"/>
      <polygon class="cls-2" points="50.7 90 49.3 90 0 40.7 0 39.3 50.7 90"/>
      <polygon class="cls-2" points="60.7 90 59.3 90 0 30.7 0 29.3 60.7 90"/>
      <polygon class="cls-2" points="70.7 90 69.3 90 0 20.7 0 19.3 70.7 90"/>
      <polygon class="cls-2" points="80.7 90 79.3 90 0 10.7 0 9.3 80.7 90"/>
      <polygon class="cls-2" points="90 89.3 90 90 89.3 90 0 0.7 0 0 0.7 0 90 89.3"/>
      <polygon class="cls-2" points="5.7 90 4.3 90 0 85.7 0 84.3 5.7 90"/>
      <polygon class="cls-2" points="15.7 90 14.3 90 0 75.7 0 74.3 15.7 90"/>
      <polygon class="cls-2" points="25.7 90 24.3 90 0 65.7 0 64.3 25.7 90"/>
      <polygon class="cls-2" points="35.7 90 34.3 90 0 55.7 0 54.3 35.7 90"/>
      <polygon class="cls-2" points="45.7 90 44.3 90 0 45.7 0 44.3 45.7 90"/>
      <polygon class="cls-2" points="55.7 90 54.3 90 0 35.7 0 34.3 55.7 90"/>
      <polygon class="cls-2" points="65.7 90 64.3 90 0 25.7 0 24.3 65.7 90"/>
      <polygon class="cls-2" points="75.7 90 74.3 90 0 15.7 0 14.3 75.7 90"/>
      <polygon class="cls-2" points="85.7 90 84.3 90 0 5.7 0 4.3 85.7 90"/>
      <polygon class="cls-2" points="90 0 90 0.7 89.3 0 90 0"/>
      <polygon class="cls-2" points="90 9.3 90 10.7 79.3 0 80.7 0 90 9.3"/>
      <polygon class="cls-2" points="90 19.3 90 20.7 69.3 0 70.7 0 90 19.3"/>
      <polygon class="cls-2" points="90 29.3 90 30.7 59.3 0 60.7 0 90 29.3"/>
      <polygon class="cls-2" points="90 39.3 90 40.7 49.3 0 50.7 0 90 39.3"/>
      <polygon class="cls-2" points="90 49.3 90 50.7 39.3 0 40.7 0 90 49.3"/>
      <polygon class="cls-2" points="90 59.3 90 60.7 29.3 0 30.7 0 90 59.3"/>
      <polygon class="cls-2" points="90 69.3 90 70.7 19.3 0 20.7 0 90 69.3"/>
      <polygon class="cls-2" points="90 79.3 90 80.7 9.3 0 10.7 0 90 79.3"/>
      <polygon class="cls-2" points="90 4.3 90 5.7 84.3 0 85.7 0 90 4.3"/>
      <polygon class="cls-2" points="90 14.3 90 15.7 74.3 0 75.7 0 90 14.3"/>
      <polygon class="cls-2" points="90 24.3 90 25.7 64.3 0 65.7 0 90 24.3"/>
      <polygon class="cls-2" points="90 34.3 90 35.7 54.3 0 55.7 0 90 34.3"/>
      <polygon class="cls-2" points="90 44.3 90 45.7 44.3 0 45.7 0 90 44.3"/>
      <polygon class="cls-2" points="90 54.3 90 55.7 34.3 0 35.7 0 90 54.3"/>
      <polygon class="cls-2" points="90 64.3 90 65.7 24.3 0 25.7 0 90 64.3"/>
      <polygon class="cls-2" points="90 74.3 90 75.7 14.3 0 15.7 0 90 74.3"/>
      <polygon class="cls-2" points="90 84.3 90 85.7 4.3 0 5.7 0 90 84.3"/>
    </pattern>
  </defs>
  <g>
    <path class="cls-3" d="M111.913,115.2259v11.4085a1.3427,1.3427,0,0,1-1.3427,1.3427H31.162a1.3426,1.3426,0,0,1-1.3427-1.3427V115.2259a11.2,11.2,0,0,1,11.2-11.2h.6058L46.58,58.97l.0143-.1338a11.2861,11.2861,0,0,1-9.4793-10.1673l-.9221-10.43-.43-4.8734v-.6919a6.8954,6.8954,0,0,1,6.8954-6.8954h7.5386A2.6612,2.6612,0,0,1,52.71,27.5649l.0144.0526,1.892,5.7478,1.3964,4.2515a.9038.9038,0,0,0,.8588.6219h1.8576a.9039.9039,0,0,0,.904-.9039V25.7207a2.665,2.665,0,0,1,2.5658-2.6613H79.5332a2.6649,2.6649,0,0,1,2.5657,2.6613V37.3348a.904.904,0,0,0,.904.9039h1.8577a.904.904,0,0,0,.8588-.6219l1.3963-4.2515,1.8682-5.69.0382-.11a2.6629,2.6629,0,0,1,2.5132-1.7869h7.5386a6.8954,6.8954,0,0,1,6.8954,6.8954v.6919l-.43,4.8734-.9221,10.43a11.2863,11.2863,0,0,1-9.4794,10.1673l.0144.1338,4.9546,45.0556h.6059A11.2,11.2,0,0,1,111.913,115.2259Z"/>
    <g>
      <path class="cls-1" d="M105.9693,32.6734v.6919l-.0764.8887a.0175.0175,0,0,1-.0048.0143c-.8313,3.9848-2.021,10.067-5.7813,15.9295-1.83,2.8476-8.6193,8.2132-15.9964,8.7722H48.3527a11.8527,11.8527,0,0,1-1.7583-.1338,11.2861,11.2861,0,0,1-9.4793-10.1673l-.9222-10.43-.43-4.8734v-.6919a6.8955,6.8955,0,0,1,6.8955-6.8954h7.5385A2.661,2.661,0,0,1,52.71,27.5649l.0144.0526,1.892,5.7478L56.0072,37.6a.929.929,0,0,0,.8826.6391h1.8145a.929.929,0,0,0,.929-.929V25.7206a2.665,2.665,0,0,1,2.5657-2.6612H79.5332a2.665,2.665,0,0,1,2.5657,2.6612V37.31a.929.929,0,0,0,.929.929h1.8146a.929.929,0,0,0,.8826-.6391l1.3906-4.2343,1.8682-5.69.0382-.11a2.6629,2.6629,0,0,1,2.5132-1.7869h7.5386A6.8954,6.8954,0,0,1,105.9693,32.6734Z"/>
      <path class="cls-1" d="M111.913,115.2259v12.7513H29.8193V115.2259a11.2,11.2,0,0,1,11.2-11.2h59.6931A11.2,11.2,0,0,1,111.913,115.2259Z"/>
      <path class="cls-4" d="M100.1068,104.0256H91.4923s-2.2648-16.0968-3.1677-20.7648a31.1219,31.1219,0,0,0-3.5213-9.5844c-1.5576-2.7855-4.9978-5.2414-9.5845-8.1081s-12.2027-4.83-21.2139-6.5983h27.578a15.39,15.39,0,0,0,2.5275,0H93.38a11.8514,11.8514,0,0,0,1.7582-.1338l.0144.1338Z"/>
      <path class="cls-1" d="M81.5829,58.97H84.11A15.39,15.39,0,0,1,81.5829,58.97Z"/>
      <path class="cls-1" d="M91.4923,104.0256H41.6254L46.58,58.97l.0143-.1338a11.8527,11.8527,0,0,0,1.7583.1338h5.6522c9.0112,1.7678,16.6271,3.7316,21.2139,6.5983s8.0269,5.3226,9.5845,8.1081a31.1219,31.1219,0,0,1,3.5213,9.5844C89.2275,87.9288,91.4923,104.0256,91.4923,104.0256Z"/>
      <path class="cls-4" d="M105.8881,34.2683l-.3488,3.97-.9221,10.43a11.2863,11.2863,0,0,1-9.4794,10.1673A11.8514,11.8514,0,0,1,93.38,58.97H84.11c7.3771-.559,14.1665-5.9246,15.9964-8.7722C103.8671,44.3353,105.0568,38.2531,105.8881,34.2683Z"/>
      <path class="cls-1" d="M105.8929,34.254a.0174.0174,0,0,1-.0048.0143"/>
    </g>
    <path class="cls-5" d="M105.9407,33.3653h.0286l-.43,4.8734-.9221,10.43A11.2772,11.2772,0,0,1,93.38,58.97H48.3527A11.277,11.277,0,0,1,37.1151,48.6689l-.9222-10.43-.43-4.8734h.0287a7.0488,7.0488,0,0,1,.0135-1.4021,7.2426,7.2426,0,0,1,7.0468-6.1852h7.345A2.661,2.661,0,0,1,52.71,27.5649l.0144.0526,1.892,5.7478,1.3945,4.2459a.9122.9122,0,0,0,.8667.6275h1.8434a.9122.9122,0,0,0,.9122-.9121V25.7206a2.665,2.665,0,0,1,2.5657-2.6612H79.5332a2.665,2.665,0,0,1,2.5657,2.6612V37.3442a.8946.8946,0,0,0,.8946.8945h1.8739a.8945.8945,0,0,0,.85-.6154l1.3984-4.258,1.8682-5.69.0382-.11a2.6629,2.6629,0,0,1,2.5132-1.7869H98.879a7.2453,7.2453,0,0,1,7.0477,6.1821A7.0511,7.0511,0,0,1,105.9407,33.3653Z"/>
    <path class="cls-5" d="M111.913,115.2259V126.73a1.2472,1.2472,0,0,1-1.2472,1.2473H31.0665a1.2472,1.2472,0,0,1-1.2472-1.2473v-11.504a11.2,11.2,0,0,1,11.2-11.2h59.6931A11.2,11.2,0,0,1,111.913,115.2259Z"/>
    <polygon class="cls-5" points="100.107 104.026 41.625 104.026 46.58 58.97 95.152 58.97 100.107 104.026"/>
  </g>
</svg>
