<svg id="Layer_1" data-name="Layer 1" xmlns="http://www.w3.org/2000/svg" xmlns:xlink="http://www.w3.org/1999/xlink" viewBox="0 0 141.7323 141.7323">
  <defs>
    <style>
      .cls-1, .cls-5 {
        fill: none;
      }

      .cls-2 {
        fill: #808285;
      }

      .cls-3 {
        fill: #e6e7e8;
        stroke-width: 0.9946px;
      }

      .cls-3, .cls-5 {
        stroke: #000;
        stroke-miterlimit: 10;
      }

      .cls-4 {
        fill: url(#New_Pattern);
      }

      .cls-5 {
        stroke-width: 2.9837px;
      }
    </style>
    <pattern id="New_Pattern" data-name="New Pattern" width="90" height="90" patternTransform="translate(-9 -60.7323)" patternUnits="userSpaceOnUse" viewBox="0 0 90 90">
      <rect class="cls-1" width="90" height="90"/>
      <polygon class="cls-2" points="0.7 90 0 90 0 89.3 0.7 90"/>
      <polygon class="cls-2" points="10.7 90 9.3 90 0 80.7 0 79.3 10.7 90"/>
      <polygon class="cls-2" points="20.7 90 19.3 90 0 70.7 0 69.3 20.7 90"/>
      <polygon class="cls-2" points="30.7 90 29.3 90 0 60.7 0 59.3 30.7 90"/>
      <polygon class="cls-2" points="40.7 90 39.3 90 0 50.7 0 49.3 40.7 90"/>
      <polygon class="cls-2" points="50.7 90 49.3 90 0 40.7 0 39.3 50.7 90"/>
      <polygon class="cls-2" points="60.7 90 59.3 90 0 30.7 0 29.3 60.7 90"/>
      <polygon class="cls-2" points="70.7 90 69.3 90 0 20.7 0 19.3 70.7 90"/>
      <polygon class="cls-2" points="80.7 90 79.3 90 0 10.7 0 9.3 80.7 90"/>
      <polygon class="cls-2" points="90 89.3 90 90 89.3 90 0 0.7 0 0 0.7 0 90 89.3"/>
      <polygon class="cls-2" points="5.7 90 4.3 90 0 85.7 0 84.3 5.7 90"/>
      <polygon class="cls-2" points="15.7 90 14.3 90 0 75.7 0 74.3 15.7 90"/>
      <polygon class="cls-2" points="25.7 90 24.3 90 0 65.7 0 64.3 25.7 90"/>
      <polygon class="cls-2" points="35.7 90 34.3 90 0 55.7 0 54.3 35.7 90"/>
      <polygon class="cls-2" points="45.7 90 44.3 90 0 45.7 0 44.3 45.7 90"/>
      <polygon class="cls-2" points="55.7 90 54.3 90 0 35.7 0 34.3 55.7 90"/>
      <polygon class="cls-2" points="65.7 90 64.3 90 0 25.7 0 24.3 65.7 90"/>
      <polygon class="cls-2" points="75.7 90 74.3 90 0 15.7 0 14.3 75.7 90"/>
      <polygon class="cls-2" points="85.7 90 84.3 90 0 5.7 0 4.3 85.7 90"/>
      <polygon class="cls-2" points="90 0 90 0.7 89.3 0 90 0"/>
      <polygon class="cls-2" points="90 9.3 90 10.7 79.3 0 80.7 0 90 9.3"/>
      <polygon class="cls-2" points="90 19.3 90 20.7 69.3 0 70.7 0 90 19.3"/>
      <polygon class="cls-2" points="90 29.3 90 30.7 59.3 0 60.7 0 90 29.3"/>
      <polygon class="cls-2" points="90 39.3 90 40.7 49.3 0 50.7 0 90 39.3"/>
      <polygon class="cls-2" points="90 49.3 90 50.7 39.3 0 40.7 0 90 49.3"/>
      <polygon class="cls-2" points="90 59.3 90 60.7 29.3 0 30.7 0 90 59.3"/>
      <polygon class="cls-2" points="90 69.3 90 70.7 19.3 0 20.7 0 90 69.3"/>
      <polygon class="cls-2" points="90 79.3 90 80.7 9.3 0 10.7 0 90 79.3"/>
      <polygon class="cls-2" points="90 4.3 90 5.7 84.3 0 85.7 0 90 4.3"/>
      <polygon class="cls-2" points="90 14.3 90 15.7 74.3 0 75.7 0 90 14.3"/>
      <polygon class="cls-2" points="90 24.3 90 25.7 64.3 0 65.7 0 90 24.3"/>
      <polygon class="cls-2" points="90 34.3 90 35.7 54.3 0 55.7 0 90 34.3"/>
      <polygon class="cls-2" points="90 44.3 90 45.7 44.3 0 45.7 0 90 44.3"/>
      <polygon class="cls-2" points="90 54.3 90 55.7 34.3 0 35.7 0 90 54.3"/>
      <polygon class="cls-2" points="90 64.3 90 65.7 24.3 0 25.7 0 90 64.3"/>
      <polygon class="cls-2" points="90 74.3 90 75.7 14.3 0 15.7 0 90 74.3"/>
      <polygon class="cls-2" points="90 84.3 90 85.7 4.3 0 5.7 0 90 84.3"/>
    </pattern>
  </defs>
  <g>
    <path class="cls-3" d="M112.278,123.62v5.8978a1.7127,1.7127,0,0,1-1.7156,1.7157H31.17a1.7191,1.7191,0,0,1-1.7157-1.7157V123.62a17.6045,17.6045,0,0,1,17.609-17.609H49.58a45.902,45.902,0,0,1-11.1891-29.738v-.1591c0-.2238,0-.4476.005-.6714,0-.2287.0049-.4525.01-.6763,0-.07,0-.1343.005-.2039C38.878,52.03,48.66,43.3321,62.44,30.4871a7.5774,7.5774,0,0,1-.4873-.6465h-.005a10.8841,10.8841,0,0,1,9.5678-17.1018c.06.005.1194.005.1741.0149A10.9219,10.9219,0,0,1,81.72,22.8188,10.8735,10.8735,0,0,1,76.6919,32.79l-.1293.0846c-2.0687,1.4272-4.038,5.6442-5.694,11.0547-.5917,1.9444-1.1438,4.038-1.646,6.2161a112.8871,112.8871,0,0,0-2.9589,23.2335v.6564a1.3725,1.3725,0,0,0,.1044.5172c0,.0049.005.0049.005.01a1.3356,1.3356,0,0,0,1.2234.8056h9.7269A1.3307,1.3307,0,0,0,78.6512,74.04V72.7368c0-18.4942,4.2817-31.15,7.0268-35.1186a6.2453,6.2453,0,0,1,.4226-.557.5127.5127,0,0,1,.7261-.0547,74.555,74.555,0,0,1,6.246,6.1117,40.3865,40.3865,0,0,1,6.6189,9.3441,46.116,46.116,0,0,1-4.7988,53.5483A17.595,17.595,0,0,1,112.278,123.62Z"/>
    <g>
      <path class="cls-1" d="M112.278,123.62v5.8978a1.7127,1.7127,0,0,1-1.7156,1.7157H31.17a1.7191,1.7191,0,0,1-1.7157-1.7157V123.62a17.6045,17.6045,0,0,1,17.609-17.609H94.8928A17.595,17.595,0,0,1,112.278,123.62Z"/>
      <path class="cls-4" d="M79.6309,30.05a10.7894,10.7894,0,0,1-2.939,2.74l-.1293.0846c-2.0687,1.4272-4.038,5.6442-5.694,11.0547-.5917,1.9444-1.1438,4.038-1.646,6.2161a112.8871,112.8871,0,0,0-2.9589,23.2335v.6564a1.3725,1.3725,0,0,0,.1044.5172c-2.3969-3.4761-3.59-15.9283-3.2174-23.3677a23.8777,23.8777,0,0,1,4.59-13.4418A41.5166,41.5166,0,0,1,70.5951,34.48c2.9887-3.2274,6.9571-7.529,7.7329-11.5719.84-4.3861-1.3327-8.28-6.6388-10.1547A10.9219,10.9219,0,0,1,81.72,22.8188,10.8,10.8,0,0,1,79.6309,30.05Z"/>
      <path class="cls-4" d="M106.0868,75.9a45.9065,45.9065,0,0,1-11.194,30.111h-35.72c19.1506,0,29.8971-4.8138,36.4862-17.629,7.39-14.3816,7.27-29.2805-2.5859-45.2634a40.3865,40.3865,0,0,1,6.6189,9.3441A45.8808,45.8808,0,0,1,106.0868,75.9Z"/>
      <path class="cls-1" d="M95.6586,88.3816c-6.5891,12.8152-17.3356,17.629-36.4862,17.629H49.58a45.902,45.902,0,0,1-11.1891-29.738v-.1591c0-.2238,0-.4476.005-.6714,0-.2287.0049-.4525.01-.6763,0-.07,0-.1343.005-.2039C38.878,52.03,48.66,43.3321,62.44,30.4871a7.5774,7.5774,0,0,1-.4873-.6465h-.005a10.8841,10.8841,0,0,1,9.5678-17.1018c.06.005.1194.005.1741.0149,5.3061,1.8748,7.4792,5.7686,6.6388,10.1547-.7758,4.0429-4.7442,8.3445-7.7329,11.5719a41.5166,41.5166,0,0,0-2.8544,3.2622,23.8777,23.8777,0,0,0-4.59,13.4418c-.373,7.4394.8205,19.8916,3.2174,23.3677,0,.0049.005.0049.005.01a1.3356,1.3356,0,0,0,1.2234.8056h9.7269A1.3307,1.3307,0,0,0,78.6512,74.04V72.7368c0-18.4942,4.2817-31.15,7.0268-35.1186a6.2453,6.2453,0,0,1,.4226-.557.5127.5127,0,0,1,.7261-.0547,74.555,74.555,0,0,1,6.246,6.1117C102.9289,59.1011,103.0483,74,95.6586,88.3816Z"/>
      <path class="cls-1" d="M71.6892,12.7537c-.005-.005-.005-.005-.01-.005"/>
    </g>
    <g>
      <path class="cls-5" d="M112.278,123.62v5.8979a1.7127,1.7127,0,0,1-1.7157,1.7156H31.17a1.7191,1.7191,0,0,1-1.7156-1.7156V123.62a17.6043,17.6043,0,0,1,17.609-17.609H94.8927A17.595,17.595,0,0,1,112.278,123.62Z"/>
      <path class="cls-5" d="M106.0867,75.9a45.9065,45.9065,0,0,1-11.194,30.111H49.58a45.9014,45.9014,0,0,1-11.189-29.738v-.1591c0-.2238,0-.4476.005-.6714,0-.2287.005-.4525.01-.6763,0-.07,0-.1343.005-.2039C38.8779,52.03,48.66,43.3321,62.44,30.4871a7.5786,7.5786,0,0,1-.4874-.6465h-.005A10.8882,10.8882,0,1,1,76.6919,32.79l-.1293.0846c-2.0687,1.4272-4.038,5.6442-5.694,11.0547-.5917,1.9444-1.1437,4.038-1.646,6.2161a112.8871,112.8871,0,0,0-2.9589,23.2335v.6564a1.3328,1.3328,0,0,0,1.3328,1.3327h9.727A1.3306,1.3306,0,0,0,78.6512,74.04V72.7368c0-18.4942,4.2817-31.15,7.0267-35.1186a6.2263,6.2263,0,0,1,.4227-.557.5126.5126,0,0,1,.726-.0547c1.8053,1.5615,9.6177,8.5485,12.865,15.4558A45.8808,45.8808,0,0,1,106.0867,75.9Z"/>
    </g>
  </g>
</svg>
