<svg id="Layer_1" data-name="Layer 1" xmlns="http://www.w3.org/2000/svg" xmlns:xlink="http://www.w3.org/1999/xlink" viewBox="0 0 141.7323 141.7323">
  <defs>
    <style>
      .cls-1, .cls-5, .cls-6 {
        fill: none;
      }

      .cls-2 {
        fill: #808285;
      }

      .cls-3 {
        fill: #e6e7e8;
      }

      .cls-3, .cls-5, .cls-6 {
        stroke: #000;
        stroke-miterlimit: 10;
      }

      .cls-3, .cls-6 {
        stroke-width: 0.9361px;
      }

      .cls-4 {
        fill: url(#New_Pattern);
      }

      .cls-5 {
        stroke-width: 2.8084px;
      }
    </style>
    <pattern id="New_Pattern" data-name="New Pattern" width="90" height="90" patternTransform="translate(-9 -60.7323)" patternUnits="userSpaceOnUse" viewBox="0 0 90 90">
      <rect class="cls-1" width="90" height="90"/>
      <polygon class="cls-2" points="0.7 90 0 90 0 89.3 0.7 90"/>
      <polygon class="cls-2" points="10.7 90 9.3 90 0 80.7 0 79.3 10.7 90"/>
      <polygon class="cls-2" points="20.7 90 19.3 90 0 70.7 0 69.3 20.7 90"/>
      <polygon class="cls-2" points="30.7 90 29.3 90 0 60.7 0 59.3 30.7 90"/>
      <polygon class="cls-2" points="40.7 90 39.3 90 0 50.7 0 49.3 40.7 90"/>
      <polygon class="cls-2" points="50.7 90 49.3 90 0 40.7 0 39.3 50.7 90"/>
      <polygon class="cls-2" points="60.7 90 59.3 90 0 30.7 0 29.3 60.7 90"/>
      <polygon class="cls-2" points="70.7 90 69.3 90 0 20.7 0 19.3 70.7 90"/>
      <polygon class="cls-2" points="80.7 90 79.3 90 0 10.7 0 9.3 80.7 90"/>
      <polygon class="cls-2" points="90 89.3 90 90 89.3 90 0 0.7 0 0 0.7 0 90 89.3"/>
      <polygon class="cls-2" points="5.7 90 4.3 90 0 85.7 0 84.3 5.7 90"/>
      <polygon class="cls-2" points="15.7 90 14.3 90 0 75.7 0 74.3 15.7 90"/>
      <polygon class="cls-2" points="25.7 90 24.3 90 0 65.7 0 64.3 25.7 90"/>
      <polygon class="cls-2" points="35.7 90 34.3 90 0 55.7 0 54.3 35.7 90"/>
      <polygon class="cls-2" points="45.7 90 44.3 90 0 45.7 0 44.3 45.7 90"/>
      <polygon class="cls-2" points="55.7 90 54.3 90 0 35.7 0 34.3 55.7 90"/>
      <polygon class="cls-2" points="65.7 90 64.3 90 0 25.7 0 24.3 65.7 90"/>
      <polygon class="cls-2" points="75.7 90 74.3 90 0 15.7 0 14.3 75.7 90"/>
      <polygon class="cls-2" points="85.7 90 84.3 90 0 5.7 0 4.3 85.7 90"/>
      <polygon class="cls-2" points="90 0 90 0.7 89.3 0 90 0"/>
      <polygon class="cls-2" points="90 9.3 90 10.7 79.3 0 80.7 0 90 9.3"/>
      <polygon class="cls-2" points="90 19.3 90 20.7 69.3 0 70.7 0 90 19.3"/>
      <polygon class="cls-2" points="90 29.3 90 30.7 59.3 0 60.7 0 90 29.3"/>
      <polygon class="cls-2" points="90 39.3 90 40.7 49.3 0 50.7 0 90 39.3"/>
      <polygon class="cls-2" points="90 49.3 90 50.7 39.3 0 40.7 0 90 49.3"/>
      <polygon class="cls-2" points="90 59.3 90 60.7 29.3 0 30.7 0 90 59.3"/>
      <polygon class="cls-2" points="90 69.3 90 70.7 19.3 0 20.7 0 90 69.3"/>
      <polygon class="cls-2" points="90 79.3 90 80.7 9.3 0 10.7 0 90 79.3"/>
      <polygon class="cls-2" points="90 4.3 90 5.7 84.3 0 85.7 0 90 4.3"/>
      <polygon class="cls-2" points="90 14.3 90 15.7 74.3 0 75.7 0 90 14.3"/>
      <polygon class="cls-2" points="90 24.3 90 25.7 64.3 0 65.7 0 90 24.3"/>
      <polygon class="cls-2" points="90 34.3 90 35.7 54.3 0 55.7 0 90 34.3"/>
      <polygon class="cls-2" points="90 44.3 90 45.7 44.3 0 45.7 0 90 44.3"/>
      <polygon class="cls-2" points="90 54.3 90 55.7 34.3 0 35.7 0 90 54.3"/>
      <polygon class="cls-2" points="90 64.3 90 65.7 24.3 0 25.7 0 90 64.3"/>
      <polygon class="cls-2" points="90 74.3 90 75.7 14.3 0 15.7 0 90 74.3"/>
      <polygon class="cls-2" points="90 84.3 90 85.7 4.3 0 5.7 0 90 84.3"/>
    </pattern>
  </defs>
  <g>
    <path class="cls-3" d="M110.4015,44.4449c-.0046,0-.0046,0-.0093-.0047a24.7688,24.7688,0,0,0-11.9545-3.0565c-5.3453-.3931-14.145,1.774-18.4138,4.8118L77.66,36.2443h7.76a1.0238,1.0238,0,0,0,1.0251-1.02V24.07a1.0248,1.0248,0,0,0-1.0251-1.0251H77.4168V14.2779a1.0228,1.0228,0,0,0-1.02-1.02H65.3359a1.0238,1.0238,0,0,0-1.0251,1.02v8.7669H56.3069a1.0238,1.0238,0,0,0-1.02,1.0251V35.224a1.0228,1.0228,0,0,0,1.02,1.02h7.7652l-2.3684,9.9512C57.44,43.1577,48.64,40.9906,43.29,41.3837a24.8756,24.8756,0,0,0-23.0009,34.31,39.3356,39.3356,0,0,0,2.4995,4.6105.04.04,0,0,1,.014.028c5.219,8.3644,14.0842,17.5573,18.0908,21.5359,1.2872,1.2778,2.0736,2.0174,2.0736,2.0174-.7068.2153-1.3808.454-2.0314.7161-.0562.0187-.1123.0421-.1685.0655l-.0421.0141c-.08.0327-.1639.0655-.2481.0983s-.1639.0655-.2434.0983l-.0047.0046c-.2106.089-.4166.1826-.6179.2762a15.3525,15.3525,0,0,0-8.7575,13.8736v5.3827a1.8929,1.8929,0,0,0,1.83,1.8957.2872.2872,0,0,0,.0656.0047h76.23a.3537.3537,0,0,0,.07-.0047,1.8961,1.8961,0,0,0,1.83-1.8957v-5.3827a15.3567,15.3567,0,0,0-8.7622-13.8736c-.2013-.0936-.4073-.1872-.6179-.2762l-.0047-.0046c-.08-.0328-.1591-.0656-.2434-.0983s-.1685-.0656-.2481-.0983l-.0421-.0141c-.0562-.0234-.1123-.0468-.1685-.0655-.6506-.2621-1.3246-.5008-2.0314-.7161,0,0,.7864-.74,2.0736-2.0174,4.0019-3.9739,12.8718-13.1668,18.0908-21.5359a.0992.0992,0,0,1,.0187-.028,38.9763,38.9763,0,0,0,2.4574-4.5263,24.8674,24.8674,0,0,0-11-31.3325ZM41.7265,67.9c0-4.6339,4.1518-6.4172,7.3393-6.4172,3.225,0,8.2942,1.5868,10.8546,4.1986a1.7769,1.7769,0,0,1,.5008,1.24V84.17a.6239.6239,0,0,1-.0047.0936,1.7472,1.7472,0,0,1-1.231,1.6008.017.017,0,0,0-.014.0047,4.0224,4.0224,0,0,1-.749.103,11.1776,11.1776,0,0,1-7.19-2.3451C48.0221,81.2211,41.7265,73.732,41.7265,67.9ZM90.4993,83.6269a11.1918,11.1918,0,0,1-7.19,2.3451,4.021,4.021,0,0,1-.749-.103.0171.0171,0,0,0-.014-.0047,1.7409,1.7409,0,0,1-1.231-1.6008.6239.6239,0,0,1-.0047-.0936V66.9216a1.7724,1.7724,0,0,1,.4961-1.24c2.56-2.6118,7.63-4.1986,10.8546-4.1986,3.1922,0,7.344,1.7833,7.344,6.4172C100.0058,73.732,93.71,81.2211,90.4993,83.6269Z"/>
    <g>
      <path class="cls-1" d="M119.81,60.7852a25.6619,25.6619,0,0,0-9.4082-16.34c-.0046,0-.0046,0-.0093-.0047a24.7688,24.7688,0,0,0-11.9545-3.0565c-5.3453-.3931-14.145,1.774-18.4138,4.8118L77.66,36.2443h7.76a1.0238,1.0238,0,0,0,1.0251-1.02V24.07a1.0248,1.0248,0,0,0-1.0251-1.0251H77.4168V14.2779a1.0228,1.0228,0,0,0-1.02-1.02H65.3359a1.0238,1.0238,0,0,0-1.0251,1.02v8.7669H56.3069a1.0238,1.0238,0,0,0-1.02,1.0251V35.224a1.0228,1.0228,0,0,0,1.02,1.02h7.7652l-2.3684,9.9512C57.44,43.1577,48.64,40.9906,43.29,41.3837a24.8756,24.8756,0,0,0-23.0009,34.31,39.3356,39.3356,0,0,0,2.4995,4.6105.04.04,0,0,1,.014.028c5.219,8.3644,14.0842,17.5573,18.0908,21.5359,1.2872,1.2778,2.0736,2.0174,2.0736,2.0174a56.3622,56.3622,0,0,1,12.7783-2.0174c4.2547-.2809,9.2256-.3745,15.1186-.3745.8753,0,1.7319,0,2.57.0047,20.3282,0,28.29-6.2159,35.25-14.4212C120.3621,73.3154,120.4791,65.8122,119.81,60.7852ZM60.4212,84.17a.6239.6239,0,0,1-.0047.0936,1.7472,1.7472,0,0,1-1.231,1.6008.017.017,0,0,0-.014.0047,4.0224,4.0224,0,0,1-.749.103,11.1776,11.1776,0,0,1-7.19-2.3451C48.0221,81.2211,41.7265,73.732,41.7265,67.9c0-4.6339,4.1518-6.4172,7.3393-6.4172,3.225,0,8.2942,1.5868,10.8546,4.1986a1.7769,1.7769,0,0,1,.5008,1.24Zm30.0781-.543a11.1918,11.1918,0,0,1-7.19,2.3451,4.021,4.021,0,0,1-.749-.103.0171.0171,0,0,0-.014-.0047,1.7409,1.7409,0,0,1-1.231-1.6008.6239.6239,0,0,1-.0047-.0936V66.9216a1.7724,1.7724,0,0,1,.4961-1.24c2.56-2.6118,7.63-4.1986,10.8546-4.1986,3.1922,0,7.344,1.7833,7.344,6.4172C100.0058,73.732,93.71,81.2211,90.4993,83.6269Z"/>
      <path class="cls-4" d="M123.3015,66.2429a24.6681,24.6681,0,0,1-1.9,9.5345,38.9763,38.9763,0,0,1-2.4574,4.5263.0992.0992,0,0,0-.0187.028c-5.219,8.3691-14.0889,17.562-18.0908,21.5359-1.2872,1.2778-2.0736,2.0174-2.0736,2.0174a56.2717,56.2717,0,0,0-12.7736-2.0174c-3.6228-.2387-7.7653-.3417-12.5536-.37,20.3282,0,28.29-6.2159,35.25-14.4212,11.6784-13.7612,11.7954-21.2644,11.126-26.2914a25.6619,25.6619,0,0,0-9.4082-16.34A24.8542,24.8542,0,0,1,123.3015,66.2429Z"/>
      <path class="cls-1" d="M22.7885,80.3037a24.466,24.466,0,0,1-2.4995-4.6105A39.3356,39.3356,0,0,0,22.7885,80.3037Z"/>
      <path class="cls-1" d="M121.4012,75.7774a24.424,24.424,0,0,1-2.4574,4.5263A38.9763,38.9763,0,0,0,121.4012,75.7774Z"/>
      <path class="cls-1" d="M110.879,119.0317v5.3827a1.8961,1.8961,0,0,1-1.83,1.8957.3537.3537,0,0,1-.07.0047H32.749a.2872.2872,0,0,1-.0656-.0047,1.8929,1.8929,0,0,1-1.83-1.8957v-5.3827a15.3525,15.3525,0,0,1,8.7575-13.8736c.2013-.0936.4073-.1872.6179-.2762l.0047-.0046c.0795-.0328.1591-.0656.2434-.0983s.1685-.0656.2481-.0983l.0421-.0141c.0562-.0234.1123-.0468.1685-.0655.6506-.2621,1.3246-.5008,2.0314-.7161a56.3622,56.3622,0,0,1,12.7783-2.0174c4.2547-.2809,9.2256-.3745,15.1186-.3745.8753,0,1.7319,0,2.57.0047,4.7883.0281,8.9308.1311,12.5536.37a56.2717,56.2717,0,0,1,12.7736,2.0174c.7068.2153,1.3808.454,2.0314.7161.0562.0187.1123.0421.1685.0655l.0421.0141c.08.0327.1639.0655.2481.0983s.1639.0655.2434.0983l.0047.0046c.2106.089.4166.1826.6179.2762A15.3567,15.3567,0,0,1,110.879,119.0317Z"/>
      <path class="cls-1" d="M121.4433,75.6932a.6959.6959,0,0,1-.0421.0842"/>
      <path class="cls-1" d="M110.4016,44.4449c-.0047,0-.0047,0-.0094-.0047"/>
    </g>
    <g>
      <path class="cls-5" d="M98.4377,41.3837c-5.3453-.3931-14.145,1.774-18.4138,4.8118L77.66,36.2443h7.76a1.0238,1.0238,0,0,0,1.0251-1.02V24.07a1.0248,1.0248,0,0,0-1.0251-1.0251H77.4168V14.2779a1.0228,1.0228,0,0,0-1.02-1.02H65.3359a1.0238,1.0238,0,0,0-1.0251,1.02v8.7669H56.3069a1.0238,1.0238,0,0,0-1.02,1.0251V35.224a1.0228,1.0228,0,0,0,1.02,1.02h7.7652l-2.3684,9.9512C57.44,43.1577,48.64,40.9906,43.29,41.3837a24.8756,24.8756,0,0,0-23.0009,34.31,39.3356,39.3356,0,0,0,2.4995,4.6105.04.04,0,0,1,.014.028c5.219,8.3644,14.0842,17.5573,18.0908,21.5359,1.2872,1.2778,2.0736,2.0174,2.0736,2.0174a56.3622,56.3622,0,0,1,12.7783-2.0174c4.2547-.2809,9.2256-.3745,15.1186-.3745,5.8977,0,10.8685.0936,15.1233.3745a56.2717,56.2717,0,0,1,12.7736,2.0174s.7864-.74,2.0736-2.0174c4.0019-3.9739,12.8718-13.1668,18.0908-21.5359a.0992.0992,0,0,1,.0187-.028,38.9763,38.9763,0,0,0,2.4574-4.5263A24.8609,24.8609,0,0,0,98.4377,41.3837ZM60.4212,84.17a.6239.6239,0,0,1-.0047.0936,1.7472,1.7472,0,0,1-1.231,1.6008.017.017,0,0,0-.014.0047,4.0224,4.0224,0,0,1-.749.103,11.1776,11.1776,0,0,1-7.19-2.3451C48.0221,81.2211,41.7265,73.732,41.7265,67.9c0-4.6339,4.1518-6.4172,7.3393-6.4172,3.225,0,8.2942,1.5868,10.8546,4.1986a1.7769,1.7769,0,0,1,.5008,1.24Zm30.0781-.543a11.1918,11.1918,0,0,1-7.19,2.3451,4.021,4.021,0,0,1-.749-.103.0171.0171,0,0,0-.014-.0047,1.7409,1.7409,0,0,1-1.231-1.6008.6239.6239,0,0,1-.0047-.0936V66.9216a1.7724,1.7724,0,0,1,.4961-1.24c2.56-2.6118,7.63-4.1986,10.8546-4.1986,3.1922,0,7.344,1.7833,7.344,6.4172C100.0058,73.732,93.71,81.2211,90.4993,83.6269Z"/>
      <path class="cls-6" d="M22.7885,80.3037a24.466,24.466,0,0,1-2.4995-4.6105A39.3356,39.3356,0,0,0,22.7885,80.3037Z"/>
      <path class="cls-6" d="M121.4012,75.7774a24.424,24.424,0,0,1-2.4574,4.5263A38.9763,38.9763,0,0,0,121.4012,75.7774Z"/>
      <path class="cls-5" d="M110.879,119.0317v5.3827a1.8961,1.8961,0,0,1-1.83,1.8957.3537.3537,0,0,1-.07.0047H32.749a.2872.2872,0,0,1-.0656-.0047,1.8929,1.8929,0,0,1-1.83-1.8957v-5.3827a15.3525,15.3525,0,0,1,8.7575-13.8736c.2013-.0936.4073-.1872.6179-.2762l.0047-.0046c.0795-.0328.1591-.0656.2434-.0983s.1685-.0656.2481-.0983l.0421-.0141c.0562-.0234.1123-.0468.1685-.0655.6506-.2621,1.3246-.5008,2.0314-.7161a56.3622,56.3622,0,0,1,12.7783-2.0174c4.2547-.2809,9.2256-.3745,15.1186-.3745,5.8977,0,10.8685.0936,15.1233.3745a56.2717,56.2717,0,0,1,12.7736,2.0174c.7068.2153,1.3808.454,2.0314.7161.0562.0187.1123.0421.1685.0655l.0421.0141c.08.0327.1639.0655.2481.0983s.1639.0655.2434.0983l.0047.0046c.2106.089.4166.1826.6179.2762A15.3567,15.3567,0,0,1,110.879,119.0317Z"/>
      <path class="cls-6" d="M121.4433,75.6932a.6959.6959,0,0,1-.0421.0842"/>
    </g>
  </g>
</svg>
