<svg id="Layer_1" data-name="Layer 1" xmlns="http://www.w3.org/2000/svg" xmlns:xlink="http://www.w3.org/1999/xlink" viewBox="0 0 141.7323 141.7323">
  <defs>
    <style>
      .cls-1, .cls-5 {
        fill: none;
      }

      .cls-2 {
        fill: #808285;
      }

      .cls-3 {
        fill: #e6e7e8;
        stroke-width: 0.9924px;
      }

      .cls-3, .cls-5 {
        stroke: #000;
        stroke-miterlimit: 10;
      }

      .cls-4 {
        fill: url(#New_Pattern);
      }

      .cls-5 {
        stroke-width: 2.9772px;
      }

      .cls-6 {
        fill: #231f20;
      }
    </style>
    <pattern id="New_Pattern" data-name="New Pattern" width="90" height="90" patternTransform="translate(-9 -60.7323)" patternUnits="userSpaceOnUse" viewBox="0 0 90 90">
      <rect class="cls-1" width="90" height="90"/>
      <polygon class="cls-2" points="0.7 90 0 90 0 89.3 0.7 90"/>
      <polygon class="cls-2" points="10.7 90 9.3 90 0 80.7 0 79.3 10.7 90"/>
      <polygon class="cls-2" points="20.7 90 19.3 90 0 70.7 0 69.3 20.7 90"/>
      <polygon class="cls-2" points="30.7 90 29.3 90 0 60.7 0 59.3 30.7 90"/>
      <polygon class="cls-2" points="40.7 90 39.3 90 0 50.7 0 49.3 40.7 90"/>
      <polygon class="cls-2" points="50.7 90 49.3 90 0 40.7 0 39.3 50.7 90"/>
      <polygon class="cls-2" points="60.7 90 59.3 90 0 30.7 0 29.3 60.7 90"/>
      <polygon class="cls-2" points="70.7 90 69.3 90 0 20.7 0 19.3 70.7 90"/>
      <polygon class="cls-2" points="80.7 90 79.3 90 0 10.7 0 9.3 80.7 90"/>
      <polygon class="cls-2" points="90 89.3 90 90 89.3 90 0 0.7 0 0 0.7 0 90 89.3"/>
      <polygon class="cls-2" points="5.7 90 4.3 90 0 85.7 0 84.3 5.7 90"/>
      <polygon class="cls-2" points="15.7 90 14.3 90 0 75.7 0 74.3 15.7 90"/>
      <polygon class="cls-2" points="25.7 90 24.3 90 0 65.7 0 64.3 25.7 90"/>
      <polygon class="cls-2" points="35.7 90 34.3 90 0 55.7 0 54.3 35.7 90"/>
      <polygon class="cls-2" points="45.7 90 44.3 90 0 45.7 0 44.3 45.7 90"/>
      <polygon class="cls-2" points="55.7 90 54.3 90 0 35.7 0 34.3 55.7 90"/>
      <polygon class="cls-2" points="65.7 90 64.3 90 0 25.7 0 24.3 65.7 90"/>
      <polygon class="cls-2" points="75.7 90 74.3 90 0 15.7 0 14.3 75.7 90"/>
      <polygon class="cls-2" points="85.7 90 84.3 90 0 5.7 0 4.3 85.7 90"/>
      <polygon class="cls-2" points="90 0 90 0.7 89.3 0 90 0"/>
      <polygon class="cls-2" points="90 9.3 90 10.7 79.3 0 80.7 0 90 9.3"/>
      <polygon class="cls-2" points="90 19.3 90 20.7 69.3 0 70.7 0 90 19.3"/>
      <polygon class="cls-2" points="90 29.3 90 30.7 59.3 0 60.7 0 90 29.3"/>
      <polygon class="cls-2" points="90 39.3 90 40.7 49.3 0 50.7 0 90 39.3"/>
      <polygon class="cls-2" points="90 49.3 90 50.7 39.3 0 40.7 0 90 49.3"/>
      <polygon class="cls-2" points="90 59.3 90 60.7 29.3 0 30.7 0 90 59.3"/>
      <polygon class="cls-2" points="90 69.3 90 70.7 19.3 0 20.7 0 90 69.3"/>
      <polygon class="cls-2" points="90 79.3 90 80.7 9.3 0 10.7 0 90 79.3"/>
      <polygon class="cls-2" points="90 4.3 90 5.7 84.3 0 85.7 0 90 4.3"/>
      <polygon class="cls-2" points="90 14.3 90 15.7 74.3 0 75.7 0 90 14.3"/>
      <polygon class="cls-2" points="90 24.3 90 25.7 64.3 0 65.7 0 90 24.3"/>
      <polygon class="cls-2" points="90 34.3 90 35.7 54.3 0 55.7 0 90 34.3"/>
      <polygon class="cls-2" points="90 44.3 90 45.7 44.3 0 45.7 0 90 44.3"/>
      <polygon class="cls-2" points="90 54.3 90 55.7 34.3 0 35.7 0 90 54.3"/>
      <polygon class="cls-2" points="90 64.3 90 65.7 24.3 0 25.7 0 90 64.3"/>
      <polygon class="cls-2" points="90 74.3 90 75.7 14.3 0 15.7 0 90 74.3"/>
      <polygon class="cls-2" points="90 84.3 90 85.7 4.3 0 5.7 0 90 84.3"/>
    </pattern>
  </defs>
  <g>
    <g>
      <path class="cls-3" d="M119.193,119.5171v9.7948a1.9218,1.9218,0,0,1-1.92,1.92H37.6187a1.9218,1.9218,0,0,1-1.92-1.92v-9.81a11.7047,11.7047,0,0,1,8.8074-11.353c.4169-.1191.8436-.2332,1.2753-.3473.2779-.0744.5607-.1439.8485-.2134,14.7767-3.6073,38.8669-3.7512,57.36-.6748q1.5185.2531,2.9772.5359v.005c.59.1091,1.1759.2233,1.7516.3473.0545.01.1141.0248.1686.0347.2878.06.5756.1241.8584.1836.1936.0447.3821.0844.5707.129A11.7162,11.7162,0,0,1,119.193,119.5171Z"/>
      <path class="cls-3" d="M71.5981,26.4905a5.7064,5.7064,0,0,1-2.1138-.9279c-2.1833-1.34-8.5048-9.8544-9.8643-10.48-.9775-.4466-4.0242.4069-5.5525,3.2252-2.0145,3.7166-1.5381,8.0334-2.0442,9.0457a3.84,3.84,0,0,1-.6848.779c-.4515.4367-1.0817,1.0073-1.8111,1.6573-2.7042,2.4363-6.7036,6.0188-7.304,8.1525-.4417,1.5828-5.4333,16.1462-7.3089,18.7363-1.5928,2.208-12.261,16.26-12.3206,17.2179-.1488,2.3371-.5111,6.3166,7.0212,10.2018,6.52,3.3642,11.5216,2.347,12.4147,2.089,1.0967-.3126,6.659-8.6537,7.8052-8.738.65-.05,6.1975.2233,8.7132-.918,3.136-1.429,12.4693-10.6731,13.2732-11.04,1.26-.5756,2.4214,5.736.8981,9.0655a.0368.0368,0,0,0-.01.02c-.0745.1538-.1489.3027-.2332.4416a30.5177,30.5177,0,0,1-11.477,11.73c-.03.02-.0595.0347-.0893.0546a30.697,30.697,0,0,0-14.28,20.7855c14.7767-3.6073,38.8669-3.7512,57.36-.6748q1.5185.2531,2.9772.5359v.005c.59.1091,1.1759.2233,1.7516.3473.0545.01.1141.0248.1686.0347a.2081.2081,0,0,0,.0248-.0347c.9081-1.26,2.1982-4.6,3.2253-8.8422a125.0608,125.0608,0,0,0,2.7936-20.3489c.01-.1538.02-.3126.0248-.4664.01-.1489.0148-.3027.02-.4516a.398.398,0,0,0,.005-.0794c.01-.2977.02-.6.0248-.9031,0-.124.005-.2481.005-.3721.0049-.1141.0049-.2233.0049-.3374v-.2729A49.6349,49.6349,0,0,0,71.5981,26.4905Z"/>
    </g>
    <g>
      <path class="cls-1" d="M115.0052,76.71c0,.2778-.01.58-.0248.903"/>
      <path class="cls-1" d="M71.6428,26.5a.144.144,0,0,1-.0447-.01"/>
      <path class="cls-1" d="M119.193,119.5171v9.7948a1.9218,1.9218,0,0,1-1.92,1.92H37.6187a1.9218,1.9218,0,0,1-1.92-1.92v-9.81a11.7047,11.7047,0,0,1,8.8074-11.353c.4169-.1191.8436-.2332,1.2753-.3473.2779-.0744.5607-.1439.8485-.2134,10.3606-2.5306,25.3059-3.3542,39.6856-2.5653a164.1923,164.1923,0,0,1,17.6745,1.8905q1.5185.2531,2.9772.5359v.005c.59.1091,1.1759.2233,1.7516.3473.0545.01.1141.0248.1686.0347.2878.06.5756.1241.8584.1836.1936.0447.3821.0844.5707.129A11.7162,11.7162,0,0,1,119.193,119.5171Z"/>
      <path class="cls-1" d="M82.44,29.1154a49.3,49.3,0,0,0-10.8418-2.6249,5.7064,5.7064,0,0,1-2.1138-.9279c-2.1833-1.34-8.5048-9.8544-9.8643-10.48-.9775-.4466-4.0242.4069-5.5525,3.2252-2.0145,3.7166-1.5381,8.0334-2.0442,9.0457a3.84,3.84,0,0,1-.6848.779c-.4515.4367-1.0817,1.0073-1.8111,1.6573-2.7042,2.4363-6.7036,6.0188-7.304,8.1525-.4417,1.5828-5.4333,16.1462-7.3089,18.7363-1.5928,2.208-12.261,16.26-12.3206,17.2179-.1488,2.3371-.5111,6.3166,7.0212,10.2018a19.2682,19.2682,0,0,0,11.2041,2.3222c1.7565-1.4043,6.2966-12.9011,7.9093-13.4668,2.8928-1.0122,12.7225,1.5432,14.4938.144.005-.005.01-.005.0149-.01,2.2131-1.88,4.62-4.1084,6.3314-5.6615.005-.005.01-.01.01-.0149.129-.1141.2481-.2233.3671-.3325A43.8757,43.8757,0,0,0,75.3543,59.14c.8088-1.4241,2.0642-6.0387,2.4859-6.0387.5359,0,1.31,4.5948-.2183,12.5637-1.2058,6.2967-3.4039,9.6212-8.49,14.2407a30.3614,30.3614,0,0,1-8.1326,6.8426c-.03.02-.0595.0347-.0893.0546a30.697,30.697,0,0,0-14.28,20.7855c10.3606-2.5306,25.3059-3.3542,39.6856-2.5653a4.1825,4.1825,0,0,1,.1389-4.1829c.8337-1.1413,6.3514-8.47,7.4628-10.0579A51.0735,51.0735,0,0,0,103.34,63.6257C103.91,47.1024,89.66,33.596,82.44,29.1154Z"/>
      <path class="cls-4" d="M63.2223,73.0981c-.04.0347-.0694.0645-.1092.0942a.0048.0048,0,0,0-.0049.005,25.8275,25.8275,0,0,1-4.56,3.3344c-2.5157,1.1413-8.0632.8684-8.7132.918-1.1462.0843-6.7085,8.4254-7.8052,8.738a8.0514,8.0514,0,0,1-1.2106.2332c1.7565-1.4043,6.2966-12.9011,7.9093-13.4668C51.6213,71.9419,61.451,74.4973,63.2223,73.0981Z"/>
      <path class="cls-4" d="M77.6219,65.6651c-1.2058,6.2967-3.4039,9.6212-8.49,14.2407a30.7724,30.7724,0,0,0,3.3444-4.8875c.0843-.1389.1587-.2878.2332-.4416a.0368.0368,0,0,1,.01-.02c1.5233-3.3295.3622-9.6411-.8981-9.0655a18.3884,18.3884,0,0,0-1.8757,1.5878A43.8757,43.8757,0,0,0,75.3543,59.14c.8088-1.4241,2.0642-6.0387,2.4859-6.0387C78.3761,53.1014,79.15,57.6962,77.6219,65.6651Z"/>
      <path class="cls-4" d="M115.0151,75.7279v.2729c0,.1141,0,.2233-.0049.3374,0,.124-.005.2481-.005.3721-.005.3027-.0149.6054-.0248.9031a.398.398,0,0,1-.005.0794c-.005.1489-.01.3027-.02.4516-.005.1538-.0149.3126-.0248.4664A125.0608,125.0608,0,0,1,112.1372,98.96c-1.0271,4.2425-2.3172,7.5819-3.2253,8.8422a.2081.2081,0,0,1-.0248.0347c-.0545-.01-.1141-.0248-.1686-.0347-.5757-.124-1.1612-.2382-1.7516-.3473v-.005q-1.4589-.2829-2.9772-.5359a164.1923,164.1923,0,0,0-17.6745-1.8905,4.1825,4.1825,0,0,1,.1389-4.1829c.8337-1.1413,6.3514-8.47,7.4628-10.0579A51.0735,51.0735,0,0,0,103.34,63.6257c.5706-16.5233-13.68-30.03-20.9-34.51A49.6345,49.6345,0,0,1,115.0151,75.7279Z"/>
      <path class="cls-1" d="M63.2223,73.0981c.005-.005.01-.005.0149-.01"/>
    </g>
    <g>
      <path class="cls-5" d="M119.193,119.5171v9.7948a1.9218,1.9218,0,0,1-1.92,1.92H37.6187a1.9218,1.9218,0,0,1-1.92-1.92v-9.81a11.7047,11.7047,0,0,1,8.8074-11.353c.4169-.1191.8436-.2332,1.2753-.3473.2779-.0744.5607-.1439.8485-.2134,14.7767-3.6073,38.8669-3.7512,57.36-.6748q1.5185.2531,2.9772.5359v.005c.59.1091,1.1759.2233,1.7516.3473.0545.01.1141.0248.1686.0347.2878.06.5756.1241.8584.1836.1936.0447.3821.0844.5707.129A11.7162,11.7162,0,0,1,119.193,119.5171Z"/>
      <path class="cls-5" d="M71.5981,26.4905a5.7064,5.7064,0,0,1-2.1138-.9279c-2.1833-1.34-8.5048-9.8544-9.8643-10.48-.9775-.4466-4.0242.4069-5.5525,3.2252-2.0145,3.7166-1.5381,8.0334-2.0442,9.0457a3.84,3.84,0,0,1-.6848.779c-.4515.4367-1.0817,1.0073-1.8111,1.6573-2.7042,2.4363-6.7036,6.0188-7.304,8.1525-.4417,1.5828-5.4333,16.1462-7.3089,18.7363-1.5928,2.208-12.261,16.26-12.3206,17.2179-.1488,2.3371-.5111,6.3166,7.0212,10.2018,6.52,3.3642,11.5216,2.347,12.4147,2.089,1.0967-.3126,6.659-8.6537,7.8052-8.738.65-.05,6.1975.2233,8.7132-.918,3.136-1.429,12.4693-10.6731,13.2732-11.04,1.26-.5756,2.4214,5.736.8981,9.0655a.0368.0368,0,0,0-.01.02c-.0745.1538-.1489.3027-.2332.4416a30.5177,30.5177,0,0,1-11.477,11.73c-.03.02-.0595.0347-.0893.0546a30.697,30.697,0,0,0-14.28,20.7855c14.7767-3.6073,38.8669-3.7512,57.36-.6748q1.5185.2531,2.9772.5359v.005c.59.1091,1.1759.2233,1.7516.3473.0545.01.1141.0248.1686.0347a.2081.2081,0,0,0,.0248-.0347c.9081-1.26,2.1982-4.6,3.2253-8.8422a125.0608,125.0608,0,0,0,2.7936-20.3489c.01-.1538.02-.3126.0248-.4664.01-.1489.0148-.3027.02-.4516a.398.398,0,0,0,.005-.0794c.01-.2977.02-.6.0248-.9031,0-.124.005-.2481.005-.3721.0049-.1141.0049-.2233.0049-.3374v-.2729A49.6349,49.6349,0,0,0,71.5981,26.4905Z"/>
      <path class="cls-6" d="M63.6779,44.6335a.8206.8206,0,0,1-.01.1092,3.34,3.34,0,0,1-.129.5855,2.2294,2.2294,0,0,1-.1142.3027A.1083.1083,0,0,1,63.4,45.69a1.7208,1.7208,0,0,1-.1141.2382,3.3389,3.3389,0,0,1-.6848.913,2.341,2.341,0,0,1-.2034.1836,2.2578,2.2578,0,0,1-.2779.2084,2.009,2.009,0,0,1-.2927.1786,3.302,3.302,0,0,1-.64.2729h-.01a1.9806,1.9806,0,0,1-.3374.0844c-.005.005-.005.005-.01.005-.0646.01-.1241.02-.1886.0248a3.4667,3.4667,0,0,1-1.697-.1539c-2.1684-.5756-5.1158-.2927-6.2124,1.0123a7.2186,7.2186,0,0,1,7.2-7.9739,1.03,1.03,0,0,1,.1241.005.2808.2808,0,0,1,.0645-.005.5357.5357,0,0,1,.0893.005.5776.5776,0,0,1,.0943.0049c.0843.005.1687.01.253.02a3.5748,3.5748,0,0,1,3.141,3.5528A3.0865,3.0865,0,0,1,63.6779,44.6335Z"/>
    </g>
  </g>
</svg>
