<svg id="Layer_1" data-name="Layer 1" xmlns="http://www.w3.org/2000/svg" xmlns:xlink="http://www.w3.org/1999/xlink" viewBox="0 0 141.7323 141.7323">
  <defs>
    <style>
      .cls-1, .cls-5 {
        fill: none;
      }

      .cls-2 {
        fill: #808285;
      }

      .cls-3 {
        fill: #e6e7e8;
      }

      .cls-4 {
        fill: url(#New_Pattern);
      }

      .cls-5 {
        stroke: #000;
        stroke-miterlimit: 10;
        stroke-width: 3.0058px;
      }
    </style>
    <pattern id="New_Pattern" data-name="New Pattern" width="90" height="90" patternTransform="translate(-9 -60.7323)" patternUnits="userSpaceOnUse" viewBox="0 0 90 90">
      <rect class="cls-1" width="90" height="90"/>
      <polygon class="cls-2" points="0.7 90 0 90 0 89.3 0.7 90"/>
      <polygon class="cls-2" points="10.7 90 9.3 90 0 80.7 0 79.3 10.7 90"/>
      <polygon class="cls-2" points="20.7 90 19.3 90 0 70.7 0 69.3 20.7 90"/>
      <polygon class="cls-2" points="30.7 90 29.3 90 0 60.7 0 59.3 30.7 90"/>
      <polygon class="cls-2" points="40.7 90 39.3 90 0 50.7 0 49.3 40.7 90"/>
      <polygon class="cls-2" points="50.7 90 49.3 90 0 40.7 0 39.3 50.7 90"/>
      <polygon class="cls-2" points="60.7 90 59.3 90 0 30.7 0 29.3 60.7 90"/>
      <polygon class="cls-2" points="70.7 90 69.3 90 0 20.7 0 19.3 70.7 90"/>
      <polygon class="cls-2" points="80.7 90 79.3 90 0 10.7 0 9.3 80.7 90"/>
      <polygon class="cls-2" points="90 89.3 90 90 89.3 90 0 0.7 0 0 0.7 0 90 89.3"/>
      <polygon class="cls-2" points="5.7 90 4.3 90 0 85.7 0 84.3 5.7 90"/>
      <polygon class="cls-2" points="15.7 90 14.3 90 0 75.7 0 74.3 15.7 90"/>
      <polygon class="cls-2" points="25.7 90 24.3 90 0 65.7 0 64.3 25.7 90"/>
      <polygon class="cls-2" points="35.7 90 34.3 90 0 55.7 0 54.3 35.7 90"/>
      <polygon class="cls-2" points="45.7 90 44.3 90 0 45.7 0 44.3 45.7 90"/>
      <polygon class="cls-2" points="55.7 90 54.3 90 0 35.7 0 34.3 55.7 90"/>
      <polygon class="cls-2" points="65.7 90 64.3 90 0 25.7 0 24.3 65.7 90"/>
      <polygon class="cls-2" points="75.7 90 74.3 90 0 15.7 0 14.3 75.7 90"/>
      <polygon class="cls-2" points="85.7 90 84.3 90 0 5.7 0 4.3 85.7 90"/>
      <polygon class="cls-2" points="90 0 90 0.7 89.3 0 90 0"/>
      <polygon class="cls-2" points="90 9.3 90 10.7 79.3 0 80.7 0 90 9.3"/>
      <polygon class="cls-2" points="90 19.3 90 20.7 69.3 0 70.7 0 90 19.3"/>
      <polygon class="cls-2" points="90 29.3 90 30.7 59.3 0 60.7 0 90 29.3"/>
      <polygon class="cls-2" points="90 39.3 90 40.7 49.3 0 50.7 0 90 39.3"/>
      <polygon class="cls-2" points="90 49.3 90 50.7 39.3 0 40.7 0 90 49.3"/>
      <polygon class="cls-2" points="90 59.3 90 60.7 29.3 0 30.7 0 90 59.3"/>
      <polygon class="cls-2" points="90 69.3 90 70.7 19.3 0 20.7 0 90 69.3"/>
      <polygon class="cls-2" points="90 79.3 90 80.7 9.3 0 10.7 0 90 79.3"/>
      <polygon class="cls-2" points="90 4.3 90 5.7 84.3 0 85.7 0 90 4.3"/>
      <polygon class="cls-2" points="90 14.3 90 15.7 74.3 0 75.7 0 90 14.3"/>
      <polygon class="cls-2" points="90 24.3 90 25.7 64.3 0 65.7 0 90 24.3"/>
      <polygon class="cls-2" points="90 34.3 90 35.7 54.3 0 55.7 0 90 34.3"/>
      <polygon class="cls-2" points="90 44.3 90 45.7 44.3 0 45.7 0 90 44.3"/>
      <polygon class="cls-2" points="90 54.3 90 55.7 34.3 0 35.7 0 90 54.3"/>
      <polygon class="cls-2" points="90 64.3 90 65.7 24.3 0 25.7 0 90 64.3"/>
      <polygon class="cls-2" points="90 74.3 90 75.7 14.3 0 15.7 0 90 74.3"/>
      <polygon class="cls-2" points="90 84.3 90 85.7 4.3 0 5.7 0 90 84.3"/>
    </pattern>
  </defs>
  <g>
    <path class="cls-3" d="M110.9378,129.1045q0,.3718-.01.7417a1.4525,1.4525,0,0,1-1.4576,1.4024H32.2627a1.4533,1.4533,0,0,1-1.4582-1.4062q-.01-.4023-.01-.8081A31.0007,31.0007,0,0,1,46.78,101.9325,30.9992,30.9992,0,0,0,59.7047,80.6517H51.6092a4.5186,4.5186,0,0,1-4.5187-4.5186V73.0205A2.1392,2.1392,0,0,1,48.36,71.065a79.5837,79.5837,0,0,1,10.1527-3.879q.3522-.09.7095-.1736a.416.416,0,0,0,.1572-.7356,19.1081,19.1081,0,1,1,22.9761.0047.4158.4158,0,0,0,.1552.735q.3606.0857.7193.18a78.8975,78.8975,0,0,1,10.1494,3.8811,2.14,2.14,0,0,1,1.2675,1.9548v3.1012a4.5186,4.5186,0,0,1-4.5187,4.5186h-8.09a31.018,31.018,0,0,0,12.7344,21.15l.0181.0113a29.5993,29.5993,0,0,1,3.0428,1.9024A30.89,30.89,0,0,1,110.9378,129.1045Z"/>
    <g>
      <path class="cls-4" d="M90.0077,50.9749a19.0878,19.0878,0,0,1-5.9013,13.8165c-.0651.0651-.1353.1252-.2.1853-5.8361.3256-10.6554.2805-15.4245.14,0,0,12.0029-3.0358,15.2792-11.2816,3.2713-8.2458-1.0369-15.84-8.922-21.5763A19.139,19.139,0,0,1,90.0077,50.9749Z"/>
      <path class="cls-4" d="M108.1324,116.1046c-1.5981.4308-11.502-1.8535-25.073-9.3679-13.566-7.5144-24.5871-20.6395-24.5871-20.6395a30.73,30.73,0,0,0,1.2324-5.4455H51.6092a4.4441,4.4441,0,0,1-2.38-.6813s28.6148.4609,31.6506-.4559a6.4416,6.4416,0,0,0,4.7491-5.3251c.4709-3.5568-2.69-6.9183-2.8755-7.1087.16.0351.3156.0752.4759.1153a49.47,49.47,0,0,1,11.3517,4.4234.2745.2745,0,0,1,.0652.0351v4.4786a4.5154,4.5154,0,0,1-4.5137,4.5186H82.0374a31.018,31.018,0,0,0,12.7344,21.15.1138.1138,0,0,0,.0251.0151,29.6259,29.6259,0,0,1,3.0358,1.8986A31.0238,31.0238,0,0,1,108.1324,116.1046Z"/>
      <path class="cls-1" d="M47.0905,76.1331V71.64a.3042.3042,0,0,1,.04-.02A49.7285,49.7285,0,0,1,58.5124,67.186c.531-.1353,1.0721-.2606,1.6131-.3758a19.1019,19.1019,0,0,1-8.3911-15.8353A19.1536,19.1536,0,0,1,74.8336,32.2541a.005.005,0,0,1,.0051.005c7.8851,5.736,12.1933,13.3305,8.922,21.5763C80.4844,62.0812,68.4815,65.117,68.4815,65.117c4.7691.14,9.5884.1853,15.4245-.14a19.3011,19.3011,0,0,1-2.2944,1.8385c.3858.08.7615.1653,1.1372.26l.005.005c.1854.19,3.3464,3.5519,2.8755,7.1087A6.4416,6.4416,0,0,1,80.88,79.5145c-3.0358.9168-31.6506.4559-31.6506.4559A4.5035,4.5035,0,0,1,47.0905,76.1331Z"/>
      <path class="cls-1" d="M110.9378,129.1045c0,.7214-.03,1.4377-.08,2.1441H30.8745c-.0551-.7314-.08-1.4678-.08-2.2143A31.0005,31.0005,0,0,1,46.78,101.9325,30.7882,30.7882,0,0,0,56.8242,90.175a31.4271,31.4271,0,0,0,1.6481-4.0778s11.0211,13.1251,24.5871,20.64c13.571,7.5144,23.4749,9.7987,25.073,9.3679A30.868,30.868,0,0,1,110.9378,129.1045Z"/>
      <path class="cls-1" d="M82.7538,67.0808l-.005-.0051-.005-.005"/>
    </g>
    <path class="cls-5" d="M110.9378,129.1045q0,.3718-.01.7417a1.4525,1.4525,0,0,1-1.4576,1.4024H32.2627a1.4533,1.4533,0,0,1-1.4582-1.4062q-.01-.4023-.01-.8081A31.0007,31.0007,0,0,1,46.78,101.9325,30.9992,30.9992,0,0,0,59.7047,80.6517H51.6092a4.5186,4.5186,0,0,1-4.5187-4.5186V73.0205A2.1392,2.1392,0,0,1,48.36,71.065a79.5837,79.5837,0,0,1,10.1527-3.879q.3522-.09.7095-.1736a.416.416,0,0,0,.1572-.7356,19.1081,19.1081,0,1,1,22.9761.0047.4158.4158,0,0,0,.1552.735q.3606.0857.7193.18a78.8975,78.8975,0,0,1,10.1494,3.8811,2.14,2.14,0,0,1,1.2675,1.9548v3.1012a4.5186,4.5186,0,0,1-4.5187,4.5186h-8.09a31.018,31.018,0,0,0,12.7344,21.15l.0181.0113a29.5993,29.5993,0,0,1,3.0428,1.9024A30.89,30.89,0,0,1,110.9378,129.1045Z"/>
  </g>
</svg>
