<svg id="Layer_1" data-name="Layer 1" xmlns="http://www.w3.org/2000/svg" xmlns:xlink="http://www.w3.org/1999/xlink" viewBox="0 0 141.7323 141.7323">
  <defs>
    <style>
      .cls-1, .cls-5 {
        fill: none;
      }

      .cls-2 {
        fill: #808285;
      }

      .cls-3 {
        fill: #e6e7e8;
        stroke-width: 0.9468px;
      }

      .cls-3, .cls-5 {
        stroke: #000;
        stroke-miterlimit: 10;
      }

      .cls-4 {
        fill: url(#New_Pattern);
      }

      .cls-5 {
        stroke-width: 2.8405px;
      }
    </style>
    <pattern id="New_Pattern" data-name="New Pattern" width="90" height="90" patternTransform="translate(-9 -60.7323)" patternUnits="userSpaceOnUse" viewBox="0 0 90 90">
      <rect class="cls-1" width="90" height="90"/>
      <polygon class="cls-2" points="0.7 90 0 90 0 89.3 0.7 90"/>
      <polygon class="cls-2" points="10.7 90 9.3 90 0 80.7 0 79.3 10.7 90"/>
      <polygon class="cls-2" points="20.7 90 19.3 90 0 70.7 0 69.3 20.7 90"/>
      <polygon class="cls-2" points="30.7 90 29.3 90 0 60.7 0 59.3 30.7 90"/>
      <polygon class="cls-2" points="40.7 90 39.3 90 0 50.7 0 49.3 40.7 90"/>
      <polygon class="cls-2" points="50.7 90 49.3 90 0 40.7 0 39.3 50.7 90"/>
      <polygon class="cls-2" points="60.7 90 59.3 90 0 30.7 0 29.3 60.7 90"/>
      <polygon class="cls-2" points="70.7 90 69.3 90 0 20.7 0 19.3 70.7 90"/>
      <polygon class="cls-2" points="80.7 90 79.3 90 0 10.7 0 9.3 80.7 90"/>
      <polygon class="cls-2" points="90 89.3 90 90 89.3 90 0 0.7 0 0 0.7 0 90 89.3"/>
      <polygon class="cls-2" points="5.7 90 4.3 90 0 85.7 0 84.3 5.7 90"/>
      <polygon class="cls-2" points="15.7 90 14.3 90 0 75.7 0 74.3 15.7 90"/>
      <polygon class="cls-2" points="25.7 90 24.3 90 0 65.7 0 64.3 25.7 90"/>
      <polygon class="cls-2" points="35.7 90 34.3 90 0 55.7 0 54.3 35.7 90"/>
      <polygon class="cls-2" points="45.7 90 44.3 90 0 45.7 0 44.3 45.7 90"/>
      <polygon class="cls-2" points="55.7 90 54.3 90 0 35.7 0 34.3 55.7 90"/>
      <polygon class="cls-2" points="65.7 90 64.3 90 0 25.7 0 24.3 65.7 90"/>
      <polygon class="cls-2" points="75.7 90 74.3 90 0 15.7 0 14.3 75.7 90"/>
      <polygon class="cls-2" points="85.7 90 84.3 90 0 5.7 0 4.3 85.7 90"/>
      <polygon class="cls-2" points="90 0 90 0.7 89.3 0 90 0"/>
      <polygon class="cls-2" points="90 9.3 90 10.7 79.3 0 80.7 0 90 9.3"/>
      <polygon class="cls-2" points="90 19.3 90 20.7 69.3 0 70.7 0 90 19.3"/>
      <polygon class="cls-2" points="90 29.3 90 30.7 59.3 0 60.7 0 90 29.3"/>
      <polygon class="cls-2" points="90 39.3 90 40.7 49.3 0 50.7 0 90 39.3"/>
      <polygon class="cls-2" points="90 49.3 90 50.7 39.3 0 40.7 0 90 49.3"/>
      <polygon class="cls-2" points="90 59.3 90 60.7 29.3 0 30.7 0 90 59.3"/>
      <polygon class="cls-2" points="90 69.3 90 70.7 19.3 0 20.7 0 90 69.3"/>
      <polygon class="cls-2" points="90 79.3 90 80.7 9.3 0 10.7 0 90 79.3"/>
      <polygon class="cls-2" points="90 4.3 90 5.7 84.3 0 85.7 0 90 4.3"/>
      <polygon class="cls-2" points="90 14.3 90 15.7 74.3 0 75.7 0 90 14.3"/>
      <polygon class="cls-2" points="90 24.3 90 25.7 64.3 0 65.7 0 90 24.3"/>
      <polygon class="cls-2" points="90 34.3 90 35.7 54.3 0 55.7 0 90 34.3"/>
      <polygon class="cls-2" points="90 44.3 90 45.7 44.3 0 45.7 0 90 44.3"/>
      <polygon class="cls-2" points="90 54.3 90 55.7 34.3 0 35.7 0 90 54.3"/>
      <polygon class="cls-2" points="90 64.3 90 65.7 24.3 0 25.7 0 90 64.3"/>
      <polygon class="cls-2" points="90 74.3 90 75.7 14.3 0 15.7 0 90 74.3"/>
      <polygon class="cls-2" points="90 84.3 90 85.7 4.3 0 5.7 0 90 84.3"/>
    </pattern>
  </defs>
  <g>
    <path class="cls-3" d="M126.0423,49.7087A12.0854,12.0854,0,0,1,114.68,61.7712L98.8779,102.13,98.3,103.6019a27.1313,27.1313,0,0,1,7.03,2.8405,12.0735,12.0735,0,0,1,5.8419,10.3487v7.5036a2.0072,2.0072,0,0,1-2.0025,2.0073H32.5624a2.0083,2.0083,0,0,1-2.0073-2.0073v-7.5036a12.0778,12.0778,0,0,1,5.8467-10.3487,27.0459,27.0459,0,0,1,7.04-2.8405l-.5776-1.4723L27.0613,61.7712a12.0783,12.0783,0,1,1,11.0163-5.7377c-.0757.123-.1515.2461-.2319.3645L42.897,61.62l6.8266,7.0538.7716-29.948a12.0861,12.0861,0,0,1,4.5211-23.2966,11.9423,11.9423,0,0,1,2.6511.2935c.0048,0,.0048.0048.01.0048A12.0862,12.0862,0,0,1,62.6714,36.87L67.69,52.445l3.1766,9.847h.0048L79.0656,36.87a12.0875,12.0875,0,0,1,13-20.1957l.01.0094a12.0842,12.0842,0,0,1-.8332,22.0374l.4261,16.4652v.0048l.3455,13.4827L103.8866,56.398A12.0908,12.0908,0,0,1,118.444,38.4841l.0048.0047A12.0805,12.0805,0,0,1,126.0423,49.7087Z"/>
    <g>
      <path class="cls-1" d="M111.1724,116.7911v7.5036a2.0072,2.0072,0,0,1-2.0025,2.0073H32.5624a2.0083,2.0083,0,0,1-2.0073-2.0073v-7.5036a12.0778,12.0778,0,0,1,5.8467-10.3487,27.0459,27.0459,0,0,1,7.04-2.8405A68.7894,68.7894,0,0,1,50.24,102.13a138.2337,138.2337,0,0,1,17.36-1.657.1319.1319,0,0,0,.0426-.0047c1.0747-.0379,2.1493-.071,3.2239-.09A144.5582,144.5582,0,0,1,91.4927,102.13,69.3007,69.3007,0,0,1,98.3,103.6019a27.1313,27.1313,0,0,1,7.03,2.8405A12.0735,12.0735,0,0,1,111.1724,116.7911Z"/>
      <path class="cls-4" d="M126.0423,49.7087A12.0854,12.0854,0,0,1,114.68,61.7712L98.8779,102.13,98.3,103.6019a69.3007,69.3007,0,0,0-6.8077-1.4723,144.5582,144.5582,0,0,0-20.6266-1.7516c-1.0746.0189-2.1492.052-3.2239.09C78.6964,99.72,83.98,96.2545,90.4086,89.2338c5.733-6.2537,15.93-19.8927,21.46-32.0926a1.5743,1.5743,0,0,1,.9468-.8521c1.5054-.4971,5.2406-1.941,7.2148-4.5874,2.5185-3.3707,2.3434-8.938-1.5812-13.2129A12.0805,12.0805,0,0,1,126.0423,49.7087Z"/>
      <path class="cls-4" d="M91.2418,38.7208l.4261,16.4652a44.4076,44.4076,0,0,1-4.5874-14.16c-.3645-2.5375-1.051-6.9355.8143-8.6019,2.0214-1.799,4.7483-2.0262,6.391-4.9519,1.335-2.3718,2.23-6.77-2.2108-10.7891a12.0842,12.0842,0,0,1-.8332,22.0374Z"/>
      <path class="cls-4" d="M62.7471,25.1764c.516-3.4322-.5444-6.8976-5.07-9.4492A12.0862,12.0862,0,0,1,62.6714,36.87L67.69,52.445c-1.4817-1.657-8.8622-9.17-9.2125-18.695C58.3965,31.6574,62.0844,29.6029,62.7471,25.1764Z"/>
      <path class="cls-4" d="M42.897,61.62s-7.9581-.7291-9.7428-6.0028C31.81,51.64,34.75,48.8707,35.4549,45.0029c.2557-1.4155-.355-4-4.0145-6.8123a12.09,12.09,0,0,1,6.6372,17.8429c-.0757.123-.1515.2461-.2319.3645Z"/>
      <path class="cls-1" d="M120.03,51.7017c-1.9742,2.6464-5.7094,4.09-7.2148,4.5874a1.5743,1.5743,0,0,0-.9468.8521c-5.5295,12.2-15.7268,25.8389-21.46,32.0926C83.98,96.2545,78.6964,99.72,67.6422,100.4679a.1319.1319,0,0,1-.0426.0047,138.2337,138.2337,0,0,0-17.36,1.657,68.7894,68.7894,0,0,0-6.7982,1.4723l-.5776-1.4723L27.0613,61.7712A12.085,12.085,0,1,1,31.44,38.1906c3.6595,2.812,4.27,5.3968,4.0145,6.8123C34.75,48.8707,31.81,51.64,33.1542,55.6169,34.9389,60.8906,42.897,61.62,42.897,61.62l6.8266,7.0538.7716-29.948a12.0861,12.0861,0,0,1,4.5211-23.2966,11.9423,11.9423,0,0,1,2.6511.2935c.0048,0,.0048.0048.01.0048,4.5258,2.5516,5.5862,6.017,5.07,9.4492-.6627,4.4265-4.3506,6.481-4.27,8.5736.35,9.525,7.7308,17.038,9.2125,18.695l3.1766,9.847h.0048L79.0656,36.87a12.0875,12.0875,0,0,1,13-20.1957l.01.0094c4.4406,4.0193,3.5458,8.4173,2.2108,10.7891-1.6427,2.9257-4.37,3.1529-6.391,4.9519-1.8653,1.6664-1.1788,6.0644-.8143,8.6019a44.4076,44.4076,0,0,0,4.5874,14.16v.0048l.3455,13.4827L103.8866,56.398A12.0908,12.0908,0,0,1,118.444,38.4841l.0048.0047C122.3734,42.7637,122.5485,48.331,120.03,51.7017Z"/>
      <line class="cls-1" x1="118.4488" y1="38.4888" x2="118.444" y2="38.4841"/>
      <path class="cls-1" d="M67.6422,100.4679a.1319.1319,0,0,1-.0426.0047"/>
      <path class="cls-1" d="M92.075,16.6834l-.01-.0094"/>
      <path class="cls-1" d="M57.6769,15.7272c-.0048,0-.0048-.0048-.01-.0048"/>
    </g>
    <g>
      <path class="cls-5" d="M111.1724,116.7911v7.5036a2.0072,2.0072,0,0,1-2.0025,2.0073H32.5624a2.0083,2.0083,0,0,1-2.0073-2.0073v-7.5036a12.0778,12.0778,0,0,1,5.8467-10.3487,27.0459,27.0459,0,0,1,7.04-2.8405A68.7894,68.7894,0,0,1,50.24,102.13a144.5568,144.5568,0,0,1,20.6265-1.7516A144.5582,144.5582,0,0,1,91.4927,102.13,69.3007,69.3007,0,0,1,98.3,103.6019a27.1313,27.1313,0,0,1,7.03,2.8405A12.0735,12.0735,0,0,1,111.1724,116.7911Z"/>
      <path class="cls-5" d="M126.0423,49.7087A12.0854,12.0854,0,0,1,114.68,61.7712L98.8779,102.13,98.3,103.6019a69.3007,69.3007,0,0,0-6.8077-1.4723,144.5582,144.5582,0,0,0-20.6266-1.7516A144.5568,144.5568,0,0,0,50.24,102.13a68.7894,68.7894,0,0,0-6.7982,1.4723l-.5776-1.4723L27.0613,61.7712a12.0783,12.0783,0,1,1,11.0163-5.7377c-.0757.123-.1515.2461-.2319.3645L49.7236,68.6735l.7716-29.948A12.0861,12.0861,0,1,1,62.6714,36.87L70.8661,62.292h.0048L79.0656,36.87a12.0855,12.0855,0,1,1,12.1762,1.8511l.7716,29.9527L103.8866,56.398a12.0873,12.0873,0,1,1,22.1557-6.6893Z"/>
    </g>
  </g>
</svg>
