<svg id="Layer_1" data-name="Layer 1" xmlns="http://www.w3.org/2000/svg" xmlns:xlink="http://www.w3.org/1999/xlink" viewBox="0 0 141.7323 141.7323">
  <defs>
    <style>
      .cls-1, .cls-5 {
        fill: none;
      }

      .cls-2 {
        fill: #808285;
      }

      .cls-3 {
        fill: #e6e7e8;
        stroke-width: 0.9556px;
      }

      .cls-3, .cls-5 {
        stroke: #000;
        stroke-miterlimit: 10;
      }

      .cls-4 {
        fill: url(#New_Pattern);
      }

      .cls-5 {
        stroke-width: 2.8667px;
      }
    </style>
    <pattern id="New_Pattern" data-name="New Pattern" width="90" height="90" patternTransform="translate(-9 -60.7323)" patternUnits="userSpaceOnUse" viewBox="0 0 90 90">
      <rect class="cls-1" width="90" height="90"/>
      <polygon class="cls-2" points="0.7 90 0 90 0 89.3 0.7 90"/>
      <polygon class="cls-2" points="10.7 90 9.3 90 0 80.7 0 79.3 10.7 90"/>
      <polygon class="cls-2" points="20.7 90 19.3 90 0 70.7 0 69.3 20.7 90"/>
      <polygon class="cls-2" points="30.7 90 29.3 90 0 60.7 0 59.3 30.7 90"/>
      <polygon class="cls-2" points="40.7 90 39.3 90 0 50.7 0 49.3 40.7 90"/>
      <polygon class="cls-2" points="50.7 90 49.3 90 0 40.7 0 39.3 50.7 90"/>
      <polygon class="cls-2" points="60.7 90 59.3 90 0 30.7 0 29.3 60.7 90"/>
      <polygon class="cls-2" points="70.7 90 69.3 90 0 20.7 0 19.3 70.7 90"/>
      <polygon class="cls-2" points="80.7 90 79.3 90 0 10.7 0 9.3 80.7 90"/>
      <polygon class="cls-2" points="90 89.3 90 90 89.3 90 0 0.7 0 0 0.7 0 90 89.3"/>
      <polygon class="cls-2" points="5.7 90 4.3 90 0 85.7 0 84.3 5.7 90"/>
      <polygon class="cls-2" points="15.7 90 14.3 90 0 75.7 0 74.3 15.7 90"/>
      <polygon class="cls-2" points="25.7 90 24.3 90 0 65.7 0 64.3 25.7 90"/>
      <polygon class="cls-2" points="35.7 90 34.3 90 0 55.7 0 54.3 35.7 90"/>
      <polygon class="cls-2" points="45.7 90 44.3 90 0 45.7 0 44.3 45.7 90"/>
      <polygon class="cls-2" points="55.7 90 54.3 90 0 35.7 0 34.3 55.7 90"/>
      <polygon class="cls-2" points="65.7 90 64.3 90 0 25.7 0 24.3 65.7 90"/>
      <polygon class="cls-2" points="75.7 90 74.3 90 0 15.7 0 14.3 75.7 90"/>
      <polygon class="cls-2" points="85.7 90 84.3 90 0 5.7 0 4.3 85.7 90"/>
      <polygon class="cls-2" points="90 0 90 0.7 89.3 0 90 0"/>
      <polygon class="cls-2" points="90 9.3 90 10.7 79.3 0 80.7 0 90 9.3"/>
      <polygon class="cls-2" points="90 19.3 90 20.7 69.3 0 70.7 0 90 19.3"/>
      <polygon class="cls-2" points="90 29.3 90 30.7 59.3 0 60.7 0 90 29.3"/>
      <polygon class="cls-2" points="90 39.3 90 40.7 49.3 0 50.7 0 90 39.3"/>
      <polygon class="cls-2" points="90 49.3 90 50.7 39.3 0 40.7 0 90 49.3"/>
      <polygon class="cls-2" points="90 59.3 90 60.7 29.3 0 30.7 0 90 59.3"/>
      <polygon class="cls-2" points="90 69.3 90 70.7 19.3 0 20.7 0 90 69.3"/>
      <polygon class="cls-2" points="90 79.3 90 80.7 9.3 0 10.7 0 90 79.3"/>
      <polygon class="cls-2" points="90 4.3 90 5.7 84.3 0 85.7 0 90 4.3"/>
      <polygon class="cls-2" points="90 14.3 90 15.7 74.3 0 75.7 0 90 14.3"/>
      <polygon class="cls-2" points="90 24.3 90 25.7 64.3 0 65.7 0 90 24.3"/>
      <polygon class="cls-2" points="90 34.3 90 35.7 54.3 0 55.7 0 90 34.3"/>
      <polygon class="cls-2" points="90 44.3 90 45.7 44.3 0 45.7 0 90 44.3"/>
      <polygon class="cls-2" points="90 54.3 90 55.7 34.3 0 35.7 0 90 54.3"/>
      <polygon class="cls-2" points="90 64.3 90 65.7 24.3 0 25.7 0 90 64.3"/>
      <polygon class="cls-2" points="90 74.3 90 75.7 14.3 0 15.7 0 90 74.3"/>
      <polygon class="cls-2" points="90 84.3 90 85.7 4.3 0 5.7 0 90 84.3"/>
    </pattern>
  </defs>
  <g>
    <path class="cls-3" d="M111.9131,115.226v11.4085a1.3428,1.3428,0,0,1-1.3428,1.3428H31.162a1.3428,1.3428,0,0,1-1.3428-1.3428V115.226a11.2,11.2,0,0,1,11.2-11.2h.6058L46.58,58.97l.0143-.1338a11.2862,11.2862,0,0,1-9.4793-10.1674l-.9222-10.43-.43-4.8735v-.6918a6.8955,6.8955,0,0,1,6.8954-6.8955h7.5386A2.6611,2.6611,0,0,1,52.71,27.565l.0143.0525,1.8921,5.7478,1.3964,4.2516a.9038.9038,0,0,0,.8588.6219h1.8576a.904.904,0,0,0,.904-.904V25.7207a2.6651,2.6651,0,0,1,2.5658-2.6613H79.5332a2.6651,2.6651,0,0,1,2.5658,2.6613V37.3348a.9039.9039,0,0,0,.9039.904h1.8577a.904.904,0,0,0,.8588-.6219l1.3964-4.2516,1.8681-5.69.0382-.11a2.6631,2.6631,0,0,1,2.5132-1.787h7.5386a6.8955,6.8955,0,0,1,6.8954,6.8955v.6918l-.43,4.8735-.9222,10.43a11.2863,11.2863,0,0,1-9.4793,10.1674l.0143.1338,4.9546,45.0556h.6059A11.2,11.2,0,0,1,111.9131,115.226Z"/>
    <g>
      <path class="cls-1" d="M105.9693,32.6734v.6919l-.0764.8887a.0176.0176,0,0,1-.0048.0144c-.8313,3.9847-2.021,10.067-5.7813,15.9295-1.83,2.8476-8.6193,8.2132-15.9964,8.7722H48.3527a11.8517,11.8517,0,0,1-1.7583-.1338A11.2864,11.2864,0,0,1,37.115,48.6689l-.9221-10.43-.43-4.8735v-.6918a6.8955,6.8955,0,0,1,6.8954-6.8955h7.5386A2.6611,2.6611,0,0,1,52.71,27.565l.0143.0525,1.8921,5.7478L56.0072,37.6a.929.929,0,0,0,.8826.6391h1.8145a.929.929,0,0,0,.929-.929V25.7207a2.665,2.665,0,0,1,2.5657-2.6613H79.5332a2.6651,2.6651,0,0,1,2.5658,2.6613V37.31a.929.929,0,0,0,.929.929h1.8145a.9291.9291,0,0,0,.8826-.6391l1.3907-4.2344,1.8681-5.69.0382-.11a2.6631,2.6631,0,0,1,2.5132-1.787h7.5386A6.8954,6.8954,0,0,1,105.9693,32.6734Z"/>
      <path class="cls-1" d="M111.9131,115.226v12.7513H29.8192V115.226a11.2,11.2,0,0,1,11.2-11.2h59.6933A11.2,11.2,0,0,1,111.9131,115.226Z"/>
      <path class="cls-4" d="M100.1068,104.0257H91.4923s-2.2648-16.0968-3.1677-20.7648a31.1219,31.1219,0,0,0-3.5213-9.5844c-1.5576-2.7856-4.9978-5.2414-9.5845-8.1081s-12.2027-4.83-21.2139-6.5983h27.578a15.39,15.39,0,0,0,2.5275,0H93.38a11.8537,11.8537,0,0,0,1.7583-.1338l.0143.1338Z"/>
      <path class="cls-1" d="M81.5829,58.97H84.11A15.39,15.39,0,0,1,81.5829,58.97Z"/>
      <path class="cls-1" d="M91.4923,104.0257H41.6254L46.58,58.97l.0143-.1338a11.8517,11.8517,0,0,0,1.7583.1338h5.6522c9.0112,1.7678,16.6271,3.7315,21.2139,6.5983s8.0269,5.3225,9.5845,8.1081a31.1219,31.1219,0,0,1,3.5213,9.5844C89.2275,87.9289,91.4923,104.0257,91.4923,104.0257Z"/>
      <path class="cls-4" d="M105.8881,34.2684l-.3487,3.97-.9222,10.43a11.2864,11.2864,0,0,1-9.4793,10.1674A11.8537,11.8537,0,0,1,93.38,58.97H84.11c7.3771-.559,14.1665-5.9246,15.9964-8.7722C103.8671,44.3354,105.0568,38.2531,105.8881,34.2684Z"/>
      <path class="cls-1" d="M105.8929,34.254a.0176.0176,0,0,1-.0048.0144"/>
    </g>
    <path class="cls-5" d="M105.9407,33.3653h.0286l-.43,4.8735-.9222,10.43A11.2771,11.2771,0,0,1,93.38,58.97H48.3527A11.2773,11.2773,0,0,1,37.115,48.6689l-.9221-10.43-.43-4.8735h.0287a7.0488,7.0488,0,0,1,.0135-1.4021,7.2426,7.2426,0,0,1,7.0467-6.1852h7.3451A2.6611,2.6611,0,0,1,52.71,27.565l.0143.0525,1.8921,5.7478,1.3945,4.246a.9122.9122,0,0,0,.8666.6275h1.8435a.9122.9122,0,0,0,.9122-.9122V25.7207a2.665,2.665,0,0,1,2.5657-2.6613H79.5332a2.6651,2.6651,0,0,1,2.5658,2.6613V37.3442a.8945.8945,0,0,0,.8945.8946h1.8739a.8945.8945,0,0,0,.85-.6155l1.3985-4.258,1.8681-5.69.0382-.11a2.6631,2.6631,0,0,1,2.5132-1.787h7.3438a7.2454,7.2454,0,0,1,7.0476,6.1821A7.0436,7.0436,0,0,1,105.9407,33.3653Z"/>
    <path class="cls-5" d="M111.9131,115.226V126.73a1.2472,1.2472,0,0,1-1.2473,1.2472H31.0664a1.2472,1.2472,0,0,1-1.2472-1.2472V115.226a11.2,11.2,0,0,1,11.2-11.2h59.6933A11.2,11.2,0,0,1,111.9131,115.226Z"/>
    <polygon class="cls-5" points="100.107 104.026 41.625 104.026 46.58 58.97 95.152 58.97 100.107 104.026"/>
  </g>
</svg>
