<svg id="Layer_1" data-name="Layer 1" xmlns="http://www.w3.org/2000/svg" viewBox="0 0 240 240">
  <path fill="rgb(139, 107, 74)" d="M219.893,105.749c-.047-3.016-.107-5.771-.178-8.444a8.158,8.158,0,0,0-8.206-8,8.444,8.444,0,0,0-2.1.273,172.762,172.762,0,0,1-20.153,3.931,5.573,5.573,0,0,1-4.288-1.235,5.435,5.435,0,0,1-1.959-4.014c-.3-7.933-.713-15.011-1.271-21.626a5.49,5.49,0,0,1,6.211-5.914,181.8,181.8,0,0,1,21.032,3.99,6.2,6.2,0,0,0,1.615.214,6.324,6.324,0,0,0,6.247-7.185c-.606-4.358-1.318-8.479-2.114-12.244l-.036-.178A25.936,25.936,0,0,0,194.716,25.3l-.213-.047c-3.8-.8-7.921-1.508-12.244-2.114a7.248,7.248,0,0,0-.879-.059A6.326,6.326,0,0,0,175.288,31a181.585,181.585,0,0,1,3.99,21.044,5.484,5.484,0,0,1-1.461,4.525,5.572,5.572,0,0,1-4.441,1.686c-6.639-.558-13.717-.974-21.65-1.259a5.5,5.5,0,0,1-5.237-6.259,176.459,176.459,0,0,1,3.919-20.165,8.207,8.207,0,0,0-7.719-10.308c-2.7-.071-5.534-.13-8.432-.166-4.5-.071-9.3-.107-14.263-.107-4.988,0-9.786.036-14.251.107-2.874.036-5.712.1-8.444.166A8.207,8.207,0,0,0,89.58,30.575,175.732,175.732,0,0,1,93.5,50.74,5.483,5.483,0,0,1,88.262,57c-7.933.285-15.011.7-21.65,1.259a5.587,5.587,0,0,1-4.441-1.686,5.487,5.487,0,0,1-1.461-4.525,178.484,178.484,0,0,1,4-21.044,6.3,6.3,0,0,0-1.128-5.463,6.232,6.232,0,0,0-4.964-2.458,7.448,7.448,0,0,0-.891.059c-4.311.606-8.4,1.306-12.16,2.1l-.25.059a25.931,25.931,0,0,0-20.01,20l-.036.19c-.808,3.765-1.52,7.886-2.126,12.244a6.341,6.341,0,0,0,6.259,7.185,6.182,6.182,0,0,0,1.6-.214,181.585,181.585,0,0,1,21.044-3.99,5.486,5.486,0,0,1,6.2,5.9c-.558,6.639-.974,13.717-1.259,21.638a5.5,5.5,0,0,1-6.247,5.249,172.845,172.845,0,0,1-20.153-3.931,8.532,8.532,0,0,0-2.114-.273,8.166,8.166,0,0,0-8.206,8c-.071,2.649-.13,5.416-.166,8.444-.071,4.525-.107,9.323-.107,14.239s.036,9.715.107,14.263c.036,3.028.1,5.784.166,8.444a8.164,8.164,0,0,0,8.206,7.992,8.606,8.606,0,0,0,2.114-.273A175.5,175.5,0,0,1,50.746,146.5a5.417,5.417,0,0,1,.76-.06,5.489,5.489,0,0,1,5.487,5.3c.285,7.933.7,15.011,1.259,21.638a5.486,5.486,0,0,1-6.2,5.9,180.382,180.382,0,0,1-21.032-3.99,6.272,6.272,0,0,0-1.615-.214,6.343,6.343,0,0,0-6.259,7.2c.606,4.311,1.318,8.42,2.114,12.232l.048.178a25.87,25.87,0,0,0,19.915,19.987l.416.083c3.753.8,7.826,1.508,12.089,2.1a7.091,7.091,0,0,0,.891.059,6.252,6.252,0,0,0,4.964-2.446,6.337,6.337,0,0,0,1.128-5.475,179.187,179.187,0,0,1-4-21.056,5.428,5.428,0,0,1,1.473-4.512,5.487,5.487,0,0,1,3.966-1.71c.155,0,.309.011.475.023,6.6.558,13.681.974,21.638,1.259a5.5,5.5,0,0,1,5.237,6.259,173.717,173.717,0,0,1-3.919,20.165A8.207,8.207,0,0,0,97.3,219.721c2.673.071,5.523.131,8.456.178,4.489.071,9.275.107,14.239.107,4.988,0,9.786-.036,14.251-.119,2.9-.035,5.736-.095,8.456-.166a8.208,8.208,0,0,0,7.707-10.308,179.448,179.448,0,0,1-3.919-20.165,5.517,5.517,0,0,1,5.237-6.259c7.957-.285,15.035-.7,21.65-1.259a5.533,5.533,0,0,1,4.441,1.687,5.468,5.468,0,0,1,1.461,4.524,179.557,179.557,0,0,1-3.99,21.044,6.326,6.326,0,0,0,6.08,7.921,7.443,7.443,0,0,0,.9-.059c4.239-.594,8.336-1.306,12.184-2.114l.226-.047a25.936,25.936,0,0,0,20-20l.047-.19c.8-3.812,1.508-7.921,2.114-12.232a6.276,6.276,0,0,0-1.484-5,6.344,6.344,0,0,0-4.774-2.2,6.184,6.184,0,0,0-1.6.214,180.867,180.867,0,0,1-21.032,3.99,5.489,5.489,0,0,1-6.211-5.9c.558-6.615.974-13.693,1.271-21.638a5.479,5.479,0,0,1,6.247-5.237,176.437,176.437,0,0,1,20.153,3.919,8.444,8.444,0,0,0,2.1.273,8.156,8.156,0,0,0,8.206-7.992c.071-2.672.131-5.44.178-8.444.071-4.584.107-9.382.107-14.263S219.964,110.321,219.893,105.749ZM97.24,59.362a5.569,5.569,0,0,1,3.99-1.828c5.82-.107,11.959-.155,18.764-.155s12.945.048,18.764.155a5.494,5.494,0,0,1,5.368,6c-.784,8.384-1.319,17.552-1.639,28.038a5.486,5.486,0,0,1-5.4,5.321c-5.261.095-10.854.142-17.089.142s-11.816-.047-17.089-.142a5.468,5.468,0,0,1-5.392-5.321c-.332-10.5-.867-19.678-1.651-28.038A5.592,5.592,0,0,1,97.24,59.362Zm-5.677,83.119c-10.51.321-19.678.855-28.026,1.639a3.9,3.9,0,0,1-.511.023,5.5,5.5,0,0,1-5.5-5.391c-.106-5.843-.154-11.983-.154-18.764s.048-12.909.154-18.752a5.553,5.553,0,0,1,1.829-3.99,5.494,5.494,0,0,1,4.181-1.378c8.348.784,17.516,1.319,28.026,1.651a5.468,5.468,0,0,1,5.321,5.392c.095,5.332.142,10.925.142,17.077s-.047,11.757-.142,17.089A5.486,5.486,0,0,1,91.563,142.481Zm51.185,38.145a5.507,5.507,0,0,1-3.99,1.829c-5.819.107-11.959.166-18.764.166s-12.944-.059-18.764-.166a5.528,5.528,0,0,1-3.99-1.829,5.592,5.592,0,0,1-1.378-4.169c.784-8.36,1.319-17.54,1.651-28.038a5.477,5.477,0,0,1,5.392-5.321c5.261-.1,10.854-.13,17.089-.13s11.828.035,17.089.13a5.5,5.5,0,0,1,5.4,5.321c.32,10.486.855,19.666,1.639,28.038A5.512,5.512,0,0,1,142.748,180.626Zm39.713-41.874a5.5,5.5,0,0,1-5.487,5.391,3.719,3.719,0,0,1-.511-.023c-8.36-.784-17.528-1.318-28.038-1.639a5.5,5.5,0,0,1-5.321-5.4c-.1-5.332-.13-10.913-.13-17.089s.035-11.745.13-17.077a5.477,5.477,0,0,1,5.321-5.392c10.51-.332,19.678-.867,28.038-1.651a5.5,5.5,0,0,1,6,5.368c.107,5.843.166,11.983.166,18.752S182.568,132.909,182.461,138.752Z"/>
</svg>
